<svg width="155" height="23" viewBox="0 0 155 23" fill="none" xmlns="http://www.w3.org/2000/svg">
<g clip-path="url(#clip0_264_26)">
<path d="M12.8069 15.2132H3.65923C2.67457 17.5615 1.97493 20.021 1.57554 22.5384H0C1.32102 19.4652 2.54077 16.2891 3.91287 12.8573L8.94421 0H9.04548L17.8373 22.5384H15.6013L12.8069 15.2132ZM12.6034 14.6495L8.23261 3.4318L4.4721 13.0623L3.86267 14.6469L12.6034 14.6495Z" fill="white"/>
<path d="M25.0545 15.2132V0.410129H27.1382V15.1111C27.1382 19.7209 29.273 22.0777 33.3382 22.0777C37.2511 22.0777 39.5382 19.7697 39.5382 15.2141V10.0398C39.5961 6.80741 39.4602 3.57448 39.1313 0.358643H40.5545C40.2514 3.57632 40.1156 6.80778 40.1476 10.0398V15.0596C40.1476 20.0795 37.7081 22.897 32.6266 22.897C27.6464 22.897 25.0545 20.131 25.0545 15.2132Z" fill="white"/>
<path d="M65.1 23H62.864C62.1013 21.412 61.4408 20.5926 59.0013 17.0579C58.5442 16.3921 56.3082 13.2674 56.3082 13.2674C56.1084 13.005 55.8434 12.8004 55.54 12.6745C55.2365 12.5485 54.9054 12.5056 54.5803 12.5502H52.1919V22.5393H50.1592V0.410156H54.6313C60.1708 0.410156 63.2708 2.25388 63.2708 6.0452C63.2708 9.06334 60.0696 11.1672 57.3254 12.243C57.2632 12.2745 57.2082 12.3186 57.1638 12.3726C57.1194 12.4266 57.0866 12.4893 57.0675 12.5567C57.0484 12.6241 57.0434 12.6948 57.0527 12.7642C57.0621 12.8337 57.0856 12.9005 57.1219 12.9603C57.1219 12.9603 58.6975 15.1626 59.6627 16.5457C62.0484 19.9269 63.1185 21.3596 65.1 23ZM61.085 6.24937C61.085 3.02262 58.9502 0.92324 54.6305 0.92324H52.2421V11.8844C53.2692 12.0275 54.3052 12.0961 55.3421 12.0895C56.1053 12.1066 56.8639 11.9669 57.5718 11.6788C58.2797 11.3907 58.9219 10.9603 59.4593 10.4138C59.9968 9.86738 60.4182 9.21631 60.6978 8.50033C60.9775 7.78435 61.1086 7.01846 61.085 6.24937Z" fill="white"/>
<path d="M71.0455 11.6287C71.0455 4.56005 76.127 0 82.4802 0C88.579 0 93.5592 4.30262 93.5592 11.2736C93.5592 18.3423 88.4777 22.9024 82.1245 22.9024C75.9773 22.897 71.0455 18.5944 71.0455 11.6287ZM91.2721 11.5772C91.2721 4.96928 87.309 0.513084 82.2768 0.513084C77.1442 0.513084 73.3819 4.81571 73.3819 11.3216C73.3819 17.9295 77.2948 22.3857 82.4785 22.3857C87.4605 22.3848 91.2721 18.1346 91.2721 11.5772Z" fill="white"/>
<path d="M118.003 23H115.767C115.005 21.412 114.344 20.5926 111.905 17.0579C111.448 16.3921 109.212 13.2674 109.212 13.2674C109.012 13.005 108.747 12.8004 108.443 12.6745C108.14 12.5485 107.809 12.5056 107.484 12.5502H105.095V22.5393H103.063V0.410156H107.535C113.074 0.410156 116.174 2.25388 116.174 6.0452C116.174 9.06334 112.973 11.1672 110.229 12.243C110.167 12.2745 110.112 12.3186 110.067 12.3726C110.023 12.4266 109.99 12.4893 109.971 12.5567C109.952 12.6241 109.947 12.6948 109.956 12.7642C109.966 12.8337 109.989 12.9005 110.025 12.9603C110.025 12.9603 111.601 15.1626 112.566 16.5457C114.903 19.9269 115.971 21.3596 118.003 23ZM113.938 6.24937C113.938 3.02262 111.803 0.92324 107.484 0.92324H105.095V11.8844C106.122 12.0275 107.158 12.0961 108.195 12.0895C108.958 12.1065 109.717 11.9666 110.425 11.6785C111.133 11.3904 111.775 10.96 112.312 10.4135C112.849 9.86707 113.271 9.21604 113.55 8.50012C113.83 7.7842 113.962 7.01839 113.938 6.24937Z" fill="white"/>
<path d="M126.795 0.410156H128.828V22.5393H126.795V0.410156Z" fill="white"/>
<path d="M149.97 15.2132H140.822C139.837 17.5614 139.138 20.021 138.738 22.5384H137.163C138.484 19.5203 139.703 16.2891 141.076 12.8573L146.107 0H146.208L155 22.5384H152.764L149.97 15.2132ZM149.766 14.6495L145.395 3.4318L141.635 13.0623L141.025 14.6504L149.766 14.6495Z" fill="white"/>
</g>
<defs>
<clipPath id="clip0_264_26">
<rect width="155" height="23" fill="white"/>
</clipPath>
</defs>
</svg>
