<svg width="640" height="640" viewBox="0 0 640 640" fill="none" xmlns="http://www.w3.org/2000/svg">
<path d="M624.32 471.002C614.963 490.304 599.13 507.546 578.483 522.342C476.352 595.648 256.358 609.894 124.403 522.342C102.618 507.968 83.2768 490.752 67.2384 470.618C24.4864 416.922 -0.832013 334.81 5.19679 257.242C7.67999 225.408 11.392 185.126 40.6272 150.131C99.6224 79.6288 208.41 95.6032 213.914 96.4992C290.099 108.864 291.418 154.317 401.587 224.128C524.122 301.875 593.894 290.893 623.974 360.346C637.786 392.154 641.19 436.083 624.32 471.002Z" fill="#DFEAF7"/>
<path d="M231.731 495.91L257.293 381.21C263.706 352.461 282.97 328.205 309.568 315.494L384.986 279.398L462.387 311.578C493.504 324.531 516.224 351.974 523.149 384.96L546.394 495.923H231.731V495.91Z" fill="#3D71F2"/>
<path d="M337.178 459.226C337.178 459.226 357.338 432.794 367.04 434.458C376.742 436.16 394.65 467.789 394.65 467.789H474.65L476.902 447.552C476.902 447.552 528.077 456.832 546.368 495.91H346.15L337.178 459.226Z" fill="#FFB0B3"/>
<path d="M476.941 449.971C475.699 449.971 474.624 449.037 474.522 447.757L467.558 379.469C467.418 378.112 468.39 376.909 469.747 376.768C471.104 376.666 472.307 377.6 472.448 378.957L479.411 447.245C479.552 448.602 478.579 449.805 477.222 449.946C477.082 449.971 477.005 449.971 476.941 449.971Z" fill="#002D53"/>
<path d="M349.133 267.853V320.998C349.133 320.998 345.318 353.907 366.426 350.925C387.52 347.981 409.907 289.702 409.907 289.702L406.438 238.016L349.133 267.853Z" fill="#FFB0B3"/>
<path d="M409.101 278.042L349.133 316.493V267.853L406.362 238.029L409.101 278.042Z" fill="#FF7A72"/>
<path d="M409.646 230.511C425.374 189.88 415.095 148.027 386.686 137.031C358.278 126.034 322.499 150.058 306.771 190.689C291.043 231.32 301.322 273.173 329.73 284.17C358.139 295.166 393.918 271.142 409.646 230.511Z" fill="#FFB3AE"/>
<path d="M416.589 200.947C416.589 200.947 387.251 184.87 371.2 147.494C371.2 147.494 296.128 206.246 278.387 170.253C260.685 134.259 304.538 105.843 309.606 130.304C309.606 130.304 350.042 64.7936 416.589 108.378C483.11 152 416.589 200.947 416.589 200.947Z" fill="#002D53"/>
<path d="M427.469 218.624C423.206 230.541 414.093 238.17 407.13 235.674C400.166 233.178 397.978 221.504 402.24 209.587C406.502 197.67 415.616 190.042 422.579 192.538C429.542 195.034 431.731 206.707 427.469 218.624Z" fill="#FFB3AE"/>
<path d="M166.912 398.605H95.1936V495.923H166.912V398.605Z" fill="#6190E5"/>
<path d="M67.968 447.59C67.968 456.077 74.8672 462.938 83.3536 462.938C88.1408 462.938 92.3904 460.749 95.2064 457.357V478.003C91.5712 479.462 87.552 480.218 83.3536 480.218C65.3056 480.218 50.688 465.638 50.688 447.616C50.688 429.568 65.3056 414.95 83.3536 414.95C87.5136 414.95 91.5328 415.718 95.2064 417.165V437.811C92.4032 434.419 88.1408 432.23 83.3536 432.23C74.8928 432.205 67.968 439.066 67.968 447.59Z" fill="#6190E5"/>
<path d="M115.29 325.85C124.122 312.371 136.947 301.491 143.424 286.733C152.333 266.47 147.648 242.598 154.445 221.53C164.288 190.976 195.469 172.954 213.722 146.522C233.613 117.773 236.685 78.2336 221.555 46.7072C214.63 32.3328 203.75 19.3024 189.235 12.6848C172.019 4.8512 151.027 7.04 134.81 16.8064C118.592 26.5728 107.123 43.3152 102.042 61.5296C89.472 106.458 113.792 154.893 104.115 200.563C98.368 227.725 81.0752 251.315 75.2512 278.438C70.1568 302.029 74.944 327.283 87.1296 347.968C90.7008 354.035 100.646 373.184 105.946 360.026C107.955 355.034 106.714 348.864 107.814 343.642C109.12 337.344 111.757 331.251 115.29 325.85Z" fill="#F1F3F6"/>
<path d="M616.243 495.91H55.424V522.342H616.243V495.91Z" fill="#D18C7E"/>
<path d="M578.483 522.342C476.352 595.648 256.358 609.894 124.403 522.342H578.483Z" fill="#BC7F72"/>
<path d="M357.069 483.2C358.771 490.202 354.291 495.91 347.098 495.91H180.902C173.696 495.91 166.426 490.189 164.723 483.2L134.413 359.552C132.71 352.55 137.19 346.842 144.384 346.842H310.566C317.773 346.842 325.043 352.563 326.746 359.552L357.069 483.2Z" fill="white"/>
<path d="M262.08 423.13C263.91 433.242 257.229 441.421 247.142 441.421C237.03 441.421 227.328 433.242 225.485 423.13C223.654 413.018 230.336 404.838 240.422 404.838C250.534 404.838 260.198 413.043 262.08 423.13Z" fill="#DFEAF7"/>
<rect x="182" y="258" width="80.1452" height="42.9764" rx="21.4882" fill="#38AD70"/>
<path d="M211.149 283.951L213.844 272.769H216.93L212.809 286.988H210.729L211.149 283.951ZM208.844 272.769L211.53 283.951L211.969 286.988H209.879L205.787 272.769H208.844ZM224.674 272.769H227.526V282.535C227.526 283.629 227.324 284.521 226.92 285.211C226.523 285.894 225.973 286.396 225.27 286.715C224.567 287.027 223.763 287.184 222.858 287.184C221.946 287.184 221.136 287.027 220.426 286.715C219.716 286.396 219.163 285.894 218.766 285.211C218.375 284.521 218.18 283.629 218.18 282.535V272.769H221.032V282.535C221.032 283.154 221.1 283.629 221.237 283.961C221.38 284.293 221.585 284.521 221.852 284.644C222.125 284.762 222.461 284.82 222.858 284.82C223.261 284.82 223.593 284.762 223.854 284.644C224.121 284.521 224.323 284.293 224.459 283.961C224.603 283.629 224.674 283.154 224.674 282.535V272.769ZM237.868 284.625V286.988H231.686V284.625H237.868ZM232.575 272.769V286.988H229.713V272.769H232.575ZM237.037 278.531V280.826H231.686V278.531H237.037ZM237.848 272.769V275.143H231.686V272.769H237.848Z" fill="white"/>
<rect x="473" y="186" width="157.967" height="42.9764" rx="21.4882" fill="#3D71F2"/>
<path d="M511.497 200.269V214.488H508.636V200.269H511.497ZM515.95 206.314V208.678H510.775V206.314H515.95ZM516.497 200.269V202.643H510.775V200.269H516.497ZM518.177 200.269H522.738C523.688 200.269 524.499 200.432 525.169 200.758C525.84 201.083 526.354 201.565 526.712 202.203C527.07 202.841 527.249 203.629 527.249 204.566C527.249 205.335 527.145 205.992 526.937 206.539C526.728 207.079 526.432 207.532 526.048 207.896C525.664 208.254 525.205 208.541 524.671 208.756L523.802 209.273H520.101L520.091 206.9H522.659C523.05 206.9 523.372 206.816 523.626 206.646C523.887 206.471 524.079 206.226 524.202 205.914C524.333 205.595 524.398 205.224 524.398 204.801C524.398 204.351 524.339 203.967 524.222 203.648C524.111 203.323 523.932 203.075 523.685 202.906C523.444 202.73 523.128 202.643 522.738 202.643H521.038V214.488H518.177V200.269ZM524.632 214.488L522.025 208.15L525.023 208.141L527.689 214.351V214.488H524.632ZM539.232 206.275V208.648C539.232 209.651 539.108 210.53 538.861 211.285C538.62 212.034 538.275 212.662 537.825 213.17C537.383 213.671 536.846 214.049 536.214 214.303C535.589 214.557 534.896 214.684 534.134 214.684C533.372 214.684 532.676 214.557 532.044 214.303C531.419 214.049 530.879 213.671 530.423 213.17C529.974 212.662 529.626 212.034 529.378 211.285C529.131 210.53 529.007 209.651 529.007 208.648V206.275C529.007 205.247 529.128 204.348 529.368 203.58C529.609 202.805 529.958 202.161 530.413 201.646C530.869 201.126 531.409 200.735 532.034 200.475C532.659 200.208 533.353 200.074 534.115 200.074C534.876 200.074 535.57 200.208 536.195 200.475C536.82 200.735 537.36 201.126 537.816 201.646C538.271 202.161 538.62 202.805 538.861 203.58C539.108 204.348 539.232 205.247 539.232 206.275ZM536.39 208.648V206.256C536.39 205.579 536.341 205.003 536.243 204.527C536.146 204.045 535.999 203.652 535.804 203.346C535.609 203.04 535.371 202.815 535.091 202.672C534.811 202.529 534.486 202.457 534.115 202.457C533.743 202.457 533.415 202.529 533.128 202.672C532.848 202.815 532.611 203.04 532.415 203.346C532.227 203.652 532.083 204.045 531.986 204.527C531.894 205.003 531.849 205.579 531.849 206.256V208.648C531.849 209.299 531.898 209.856 531.995 210.318C532.093 210.781 532.24 211.158 532.435 211.451C532.63 211.744 532.868 211.962 533.148 212.105C533.434 212.242 533.763 212.31 534.134 212.31C534.499 212.31 534.821 212.242 535.101 212.105C535.387 211.962 535.625 211.744 535.814 211.451C536.003 211.158 536.146 210.781 536.243 210.318C536.341 209.856 536.39 209.299 536.39 208.648ZM551.253 200.269V214.488H548.49L544.027 205.592V214.488H541.312V200.269H544.036L548.538 209.264V200.269H551.253ZM558.929 200.269V214.488H556.087V200.269H558.929ZM562.464 200.269V202.643H552.62V200.269H562.464ZM572.279 212.125V214.488H566.097V212.125H572.279ZM566.986 200.269V214.488H564.124V200.269H566.986ZM571.449 206.031V208.326H566.097V206.031H571.449ZM572.259 200.269V202.643H566.097V200.269H572.259ZM583.89 200.269V214.488H581.126L576.663 205.592V214.488H573.949V200.269H576.673L581.175 209.264V200.269H583.89ZM589.906 214.488H587.396L587.415 212.125H589.906C590.596 212.125 591.133 212.001 591.517 211.754C591.901 211.506 592.171 211.116 592.327 210.582C592.49 210.048 592.572 209.348 592.572 208.482V206.266C592.572 205.608 592.529 205.051 592.445 204.596C592.36 204.133 592.217 203.762 592.015 203.482C591.813 203.196 591.543 202.984 591.204 202.848C590.866 202.711 590.446 202.643 589.945 202.643H587.347V200.269H589.945C590.765 200.269 591.51 200.403 592.181 200.67C592.852 200.937 593.428 201.327 593.909 201.842C594.391 202.35 594.762 202.978 595.023 203.726C595.283 204.475 595.413 205.328 595.413 206.285V208.482C595.413 209.446 595.283 210.299 595.023 211.041C594.762 211.783 594.391 212.411 593.909 212.926C593.434 213.434 592.858 213.821 592.181 214.088C591.504 214.355 590.745 214.488 589.906 214.488ZM589.056 200.269V214.488H586.195V200.269H589.056Z" fill="white"/>
</svg>
