<svg width="608" height="554" viewBox="0 0 608 554" fill="none" xmlns="http://www.w3.org/2000/svg">
<path d="M596.755 445.701C587.75 464.28 572.51 480.875 552.638 495.117C454.336 565.674 242.592 579.386 115.585 495.117C94.6168 481.282 76.0013 464.711 60.5643 445.332C19.4155 393.649 -4.95341 314.617 0.849306 239.957C3.23939 209.318 6.81219 170.547 34.9511 136.864C91.734 69.0051 196.442 84.3804 201.739 85.2428C275.068 97.144 276.337 140.892 382.375 208.086C500.314 282.917 567.471 272.347 596.423 339.195C609.716 369.81 612.993 412.092 596.755 445.701Z" fill="#DFEAF7"/>
<path d="M218.889 469.676L243.492 359.277C249.664 331.606 268.206 308.26 293.807 296.026L366.396 261.283L440.895 292.256C470.845 304.724 492.713 331.138 499.378 362.886L521.751 469.688H218.889V469.676Z" fill="#3D71F2"/>
<path d="M320.381 434.367C320.381 434.367 339.785 408.926 349.123 410.528C358.462 412.166 375.698 442.609 375.698 442.609H452.698L454.866 423.131C454.866 423.131 504.121 432.063 521.727 469.676H329.017L320.381 434.367Z" fill="#FFB0B3"/>
<path d="M454.903 425.46C453.708 425.46 452.673 424.56 452.574 423.328L445.872 357.601C445.737 356.295 446.673 355.137 447.979 355.002C449.285 354.903 450.443 355.802 450.579 357.108L457.281 422.835C457.416 424.141 456.48 425.299 455.174 425.435C455.038 425.46 454.964 425.46 454.903 425.46Z" fill="#002D53"/>
<path d="M331.888 250.171V301.323C331.888 301.323 328.216 332.998 348.532 330.127C368.835 327.294 390.383 271.201 390.383 271.201L387.044 221.453L331.888 250.171Z" fill="#FFB0B3"/>
<path d="M389.607 259.977L331.888 296.987V250.171L386.97 221.465L389.607 259.977Z" fill="#FF7A72"/>
<path d="M390.132 214.229C405.27 175.122 395.376 134.839 368.033 124.254C340.69 113.67 306.252 136.793 291.114 175.901C275.976 215.008 285.87 255.291 313.213 265.876C340.556 276.46 374.994 253.337 390.132 214.229Z" fill="#FFB3AE"/>
<path d="M396.814 185.774C396.814 185.774 368.577 170.3 353.127 134.326C353.127 134.326 280.871 190.875 263.795 156.231C246.757 121.587 288.965 94.2364 293.844 117.78C293.844 117.78 332.762 54.7262 396.814 96.6758C460.841 138.662 396.814 185.774 396.814 185.774Z" fill="#002D53"/>
<path d="M407.286 202.788C403.184 214.258 394.412 221.601 387.71 219.198C381.008 216.796 378.901 205.56 383.003 194.09C387.106 182.62 395.878 175.277 402.58 177.68C409.282 180.082 411.389 191.318 407.286 202.788Z" fill="#FFB3AE"/>
<path d="M156.5 376.02H87.4712V469.688H156.5V376.02Z" fill="#6190E5"/>
<path d="M61.2666 423.168C61.2666 431.336 67.9071 437.94 76.0752 437.94C80.6829 437.94 84.7731 435.833 87.4835 432.568V452.44C83.9847 453.845 80.1162 454.572 76.0752 454.572C58.704 454.572 44.6346 440.539 44.6346 423.193C44.6346 405.822 58.704 391.752 76.0752 391.752C80.0792 391.752 83.9477 392.491 87.4835 393.884V413.756C84.7855 410.491 80.6829 408.384 76.0752 408.384C67.9317 408.359 61.2666 414.963 61.2666 423.168Z" fill="#6190E5"/>
<path d="M106.814 305.993C115.314 293.02 127.659 282.548 133.893 268.343C142.468 248.84 137.959 225.863 144.501 205.585C153.975 176.177 183.986 158.83 201.554 133.389C220.7 105.719 223.657 67.6622 209.094 37.318C202.429 23.4827 191.957 10.9409 177.986 4.57148C161.416 -2.96836 141.211 -0.861642 125.602 8.53852C109.992 17.9387 98.9535 34.0532 94.0624 51.5846C81.9642 94.8278 105.372 141.447 96.0583 185.404C90.5266 211.547 73.8823 234.253 68.2767 260.359C63.3733 283.065 67.981 307.372 79.7096 327.282C83.1469 333.121 92.7195 351.552 97.82 338.887C99.7543 334.082 98.5592 328.144 99.6188 323.117C100.875 317.056 103.413 311.192 106.814 305.993Z" fill="#F1F3F6"/>
<path d="M588.982 469.676H49.193V495.117H588.982V469.676Z" fill="#D18C7E"/>
<path d="M552.637 495.117C454.336 565.674 242.592 579.386 115.585 495.117H552.637Z" fill="#BC7F72"/>
<path d="M339.526 457.442C341.165 464.181 336.853 469.676 329.929 469.676H169.966C163.03 469.676 156.032 464.169 154.393 457.442L125.22 338.431C123.581 331.692 127.893 326.197 134.817 326.197H294.768C301.704 326.197 308.701 331.704 310.34 338.431L339.526 457.442Z" fill="white"/>
<path d="M248.099 399.625C249.861 409.357 243.43 417.23 233.722 417.23C223.989 417.23 214.651 409.357 212.877 399.625C211.115 389.892 217.546 382.019 227.254 382.019C236.987 382.019 246.288 389.916 248.099 399.625Z" fill="#DFEAF7"/>
<rect x="171.022" y="240.687" width="77.1397" height="41.3648" rx="20.6824" fill="#38AD70"/>
<path d="M198.668 265.833L201.364 254.651H204.45L200.329 268.87H198.249L198.668 265.833ZM196.364 254.651L199.049 265.833L199.489 268.87H197.399L193.307 254.651H196.364ZM212.194 254.651H215.045V264.417C215.045 265.51 214.844 266.402 214.44 267.092C214.043 267.776 213.493 268.277 212.79 268.596C212.086 268.909 211.282 269.065 210.377 269.065C209.466 269.065 208.655 268.909 207.946 268.596C207.236 268.277 206.683 267.776 206.286 267.092C205.895 266.402 205.7 265.51 205.7 264.417V254.651H208.551V264.417C208.551 265.035 208.62 265.51 208.756 265.842C208.9 266.174 209.105 266.402 209.372 266.526C209.645 266.643 209.98 266.702 210.377 266.702C210.781 266.702 211.113 266.643 211.374 266.526C211.64 266.402 211.842 266.174 211.979 265.842C212.122 265.51 212.194 265.035 212.194 264.417V254.651ZM225.387 266.506V268.87H219.206V266.506H225.387ZM220.094 254.651V268.87H217.233V254.651H220.094ZM224.557 260.413V262.708H219.206V260.413H224.557ZM225.368 254.651V257.024H219.206V254.651H225.368Z" fill="white"/>
<rect x="451.11" y="171.387" width="152.044" height="41.3648" rx="20.6824" fill="#3D71F2"/>
<path d="M486.645 184.851V199.07H483.784V184.851H486.645ZM491.098 190.896V193.259H485.923V190.896H491.098ZM491.645 184.851V187.224H485.923V184.851H491.645ZM493.325 184.851H497.886C498.836 184.851 499.647 185.014 500.317 185.339C500.988 185.665 501.502 186.147 501.86 186.785C502.218 187.423 502.397 188.21 502.397 189.148C502.397 189.916 502.293 190.574 502.085 191.121C501.876 191.661 501.58 192.113 501.196 192.478C500.812 192.836 500.353 193.122 499.819 193.337L498.95 193.855H495.249L495.239 191.482H497.807C498.198 191.482 498.52 191.397 498.774 191.228C499.035 191.052 499.227 190.808 499.35 190.496C499.481 190.177 499.546 189.805 499.546 189.382C499.546 188.933 499.487 188.549 499.37 188.23C499.259 187.904 499.08 187.657 498.833 187.488C498.592 187.312 498.276 187.224 497.886 187.224H496.186V199.07H493.325V184.851ZM499.78 199.07L497.173 192.732L500.171 192.722L502.837 198.933V199.07H499.78ZM514.38 190.857V193.23C514.38 194.233 514.256 195.111 514.009 195.867C513.768 196.615 513.423 197.244 512.973 197.751C512.531 198.253 511.994 198.63 511.362 198.884C510.737 199.138 510.044 199.265 509.282 199.265C508.52 199.265 507.824 199.138 507.192 198.884C506.567 198.63 506.027 198.253 505.571 197.751C505.122 197.244 504.774 196.615 504.526 195.867C504.279 195.111 504.155 194.233 504.155 193.23V190.857C504.155 189.828 504.276 188.93 504.516 188.162C504.757 187.387 505.106 186.742 505.561 186.228C506.017 185.707 506.557 185.317 507.182 185.056C507.807 184.789 508.501 184.656 509.263 184.656C510.024 184.656 510.718 184.789 511.343 185.056C511.968 185.317 512.508 185.707 512.964 186.228C513.419 186.742 513.768 187.387 514.009 188.162C514.256 188.93 514.38 189.828 514.38 190.857ZM511.538 193.23V190.837C511.538 190.16 511.489 189.584 511.391 189.109C511.294 188.627 511.147 188.233 510.952 187.927C510.757 187.621 510.519 187.397 510.239 187.253C509.959 187.11 509.634 187.039 509.263 187.039C508.891 187.039 508.563 187.11 508.276 187.253C507.996 187.397 507.759 187.621 507.563 187.927C507.375 188.233 507.231 188.627 507.134 189.109C507.042 189.584 506.997 190.16 506.997 190.837V193.23C506.997 193.881 507.046 194.438 507.143 194.9C507.241 195.362 507.388 195.74 507.583 196.033C507.778 196.326 508.016 196.544 508.296 196.687C508.582 196.824 508.911 196.892 509.282 196.892C509.647 196.892 509.969 196.824 510.249 196.687C510.535 196.544 510.773 196.326 510.962 196.033C511.151 195.74 511.294 195.362 511.391 194.9C511.489 194.438 511.538 193.881 511.538 193.23ZM526.401 184.851V199.07H523.638L519.175 190.173V199.07H516.46V184.851H519.184L523.686 193.845V184.851H526.401ZM534.077 184.851V199.07H531.235V184.851H534.077ZM537.612 184.851V187.224H527.768V184.851H537.612ZM547.427 196.706V199.07H541.245V196.706H547.427ZM542.134 184.851V199.07H539.272V184.851H542.134ZM546.597 190.613V192.908H541.245V190.613H546.597ZM547.407 184.851V187.224H541.245V184.851H547.407ZM559.038 184.851V199.07H556.274L551.811 190.173V199.07H549.097V184.851H551.821L556.323 193.845V184.851H559.038ZM565.054 199.07H562.544L562.563 196.706H565.054C565.744 196.706 566.281 196.583 566.665 196.335C567.049 196.088 567.319 195.697 567.475 195.164C567.638 194.63 567.72 193.93 567.72 193.064V190.847C567.72 190.19 567.677 189.633 567.593 189.177C567.508 188.715 567.365 188.344 567.163 188.064C566.961 187.777 566.691 187.566 566.352 187.429C566.014 187.292 565.594 187.224 565.093 187.224H562.495V184.851H565.093C565.913 184.851 566.658 184.984 567.329 185.251C568 185.518 568.576 185.909 569.057 186.423C569.539 186.931 569.91 187.559 570.171 188.308C570.431 189.057 570.561 189.91 570.561 190.867V193.064C570.561 194.027 570.431 194.88 570.171 195.622C569.91 196.365 569.539 196.993 569.057 197.507C568.582 198.015 568.006 198.402 567.329 198.669C566.652 198.936 565.893 199.07 565.054 199.07ZM564.204 184.851V199.07H561.343V184.851H564.204Z" fill="white"/>
</svg>
