<svg width="110" height="36" viewBox="0 0 110 36" fill="none" xmlns="http://www.w3.org/2000/svg">
<path d="M1.2642 1.45455H5.05682L9.0625 11.2273H9.23295L13.2386 1.45455H17.0312V16H14.0483V6.53267H13.9276L10.1634 15.929H8.1321L4.3679 6.49716H4.24716V16H1.2642V1.45455ZM22.0721 16H18.7766L23.7979 1.45455H27.761L32.7752 16H29.4798L25.8363 4.77841H25.7227L22.0721 16ZM21.8661 10.2827H29.6502V12.6832H21.8661V10.2827ZM46.6921 1.45455V16H44.0359L37.7077 6.84517H37.6012V16H34.5259V1.45455H37.2248L43.5032 10.6023H43.631V1.45455H46.6921ZM54.3892 16H49.233V1.45455H54.4318C55.8949 1.45455 57.1544 1.74574 58.2102 2.32812C59.2661 2.90578 60.0781 3.73674 60.6463 4.82102C61.2192 5.9053 61.5057 7.20265 61.5057 8.71307C61.5057 10.2282 61.2192 11.5303 60.6463 12.6193C60.0781 13.7083 59.2614 14.544 58.196 15.1264C57.1354 15.7088 55.8665 16 54.3892 16ZM52.3082 13.3651H54.2614C55.1705 13.3651 55.9351 13.2041 56.5554 12.8821C57.1804 12.5554 57.6491 12.0511 57.9616 11.3693C58.2789 10.6828 58.4375 9.79735 58.4375 8.71307C58.4375 7.63826 58.2789 6.75994 57.9616 6.07812C57.6491 5.39631 57.1828 4.89441 56.5625 4.57244C55.9422 4.25047 55.1776 4.08949 54.2685 4.08949H52.3082V13.3651ZM63.6275 16V14.1747L70.886 3.99006H63.6133V1.45455H74.7496V3.27983L67.484 13.4645H74.7638V16H63.6275ZM80.1989 1.45455V16H77.1236V1.45455H80.1989ZM91.7134 1.45455H94.7887V10.9006C94.7887 11.9612 94.5354 12.8892 94.0288 13.6847C93.5269 14.4801 92.8237 15.1004 91.9194 15.5455C91.015 15.9858 89.9615 16.206 88.7589 16.206C87.5515 16.206 86.4956 15.9858 85.5913 15.5455C84.6869 15.1004 83.9838 14.4801 83.4819 13.6847C82.98 12.8892 82.729 11.9612 82.729 10.9006V1.45455H85.8043V10.6378C85.8043 11.1918 85.9251 11.6842 86.1665 12.1151C86.4128 12.5459 86.7584 12.8845 87.2035 13.1307C87.6486 13.3769 88.167 13.5 88.7589 13.5C89.3555 13.5 89.8739 13.3769 90.3143 13.1307C90.7594 12.8845 91.1026 12.5459 91.3441 12.1151C91.5903 11.6842 91.7134 11.1918 91.7134 10.6378V1.45455ZM97.3189 16V1.45455H100.394V7.8679H100.586L105.82 1.45455H109.506L104.109 7.96733L109.57 16H105.891L101.907 10.0199L100.394 11.8665V16H97.3189ZM2.10227 34V19.4545H2.99006V27.8991H3.08949L10.7599 19.4545H11.9389L5.625 26.3366L11.8821 34H10.7741L5.05682 26.9759L2.99006 29.2628V34H2.10227ZM14.0998 34H13.1623L18.4109 19.4545H19.4336L24.6822 34H23.7447L18.9577 20.598H18.8867L14.0998 34ZM15.4279 28.5241H22.4165V29.348H15.4279V28.5241ZM37.7912 24H36.8821C36.7874 23.5076 36.6098 23.0317 36.3494 22.5724C36.089 22.1084 35.7528 21.6918 35.3409 21.3224C34.9337 20.9484 34.4602 20.6525 33.9205 20.4347C33.3807 20.2169 32.7841 20.108 32.1307 20.108C31.1742 20.108 30.2936 20.3636 29.4886 20.875C28.6884 21.3816 28.0469 22.1274 27.5639 23.1122C27.0857 24.0971 26.8466 25.3021 26.8466 26.7273C26.8466 28.1619 27.0857 29.3717 27.5639 30.3565C28.0469 31.3414 28.6884 32.0871 29.4886 32.5938C30.2936 33.0956 31.1742 33.3466 32.1307 33.3466C32.7841 33.3466 33.3807 33.2401 33.9205 33.027C34.4602 32.8092 34.9337 32.5156 35.3409 32.1463C35.7528 31.7723 36.089 31.3532 36.3494 30.8892C36.6098 30.4252 36.7874 29.947 36.8821 29.4545H37.7912C37.687 30.0417 37.4858 30.617 37.1875 31.1804C36.8939 31.7438 36.5057 32.2552 36.0227 32.7145C35.5445 33.169 34.9787 33.5312 34.3253 33.8011C33.6766 34.0663 32.9451 34.1989 32.1307 34.1989C30.9186 34.1989 29.8509 33.8911 28.9276 33.2756C28.0043 32.6553 27.2798 31.7841 26.7543 30.6619C26.2334 29.5398 25.973 28.2282 25.973 26.7273C25.973 25.2263 26.2334 23.9148 26.7543 22.7926C27.2798 21.6705 28.0043 20.8016 28.9276 20.1861C29.8509 19.5658 30.9186 19.2557 32.1307 19.2557C32.9451 19.2557 33.6766 19.3906 34.3253 19.6605C34.9787 19.9257 35.5445 20.2855 36.0227 20.7401C36.5057 21.1899 36.8939 21.6965 37.1875 22.2599C37.4858 22.8234 37.687 23.4034 37.7912 24ZM41.2038 34V19.4545H45.6854C46.6087 19.4545 47.3994 19.6439 48.0575 20.0227C48.7204 20.4015 49.2294 20.92 49.5845 21.5781C49.9396 22.2363 50.1172 22.9867 50.1172 23.8295C50.1172 24.6629 49.9396 25.4086 49.5845 26.0668C49.2294 26.7249 48.7204 27.2457 48.0575 27.6293C47.3994 28.008 46.611 28.1974 45.6925 28.1974H41.8288V27.3736H45.6712C46.4193 27.3736 47.0585 27.2221 47.5888 26.919C48.1191 26.6113 48.5263 26.1922 48.8104 25.6619C49.0945 25.1269 49.2365 24.5161 49.2365 23.8295C49.2365 23.1383 49.0945 22.5251 48.8104 21.9901C48.5263 21.455 48.1167 21.036 47.5817 20.733C47.0514 20.4299 46.4122 20.2784 45.6641 20.2784H42.0916V34H41.2038ZM53.5281 34V19.4545H61.6246V20.2784H54.4158V26.3082H61.1914V27.1321H54.4158V33.1761H61.7951V34H53.5281ZM65.3054 34V19.4545H69.7869C70.7055 19.4545 71.4962 19.6345 72.1591 19.9943C72.822 20.3542 73.331 20.8537 73.6861 21.4929C74.0412 22.1274 74.2188 22.866 74.2188 23.7088C74.2188 24.5421 74.0412 25.276 73.6861 25.9105C73.331 26.5402 72.822 27.0327 72.1591 27.3878C71.5009 27.7429 70.7126 27.9205 69.794 27.9205H65.7812V27.0895H69.7727C70.5208 27.0895 71.16 26.9498 71.6903 26.6705C72.2206 26.3911 72.6278 26.0005 72.9119 25.4986C73.196 24.992 73.3381 24.3954 73.3381 23.7088C73.3381 23.0175 73.196 22.4162 72.9119 21.9048C72.6278 21.3887 72.2183 20.9886 71.6832 20.7045C71.1529 20.4205 70.5137 20.2784 69.7656 20.2784H66.1932V34H65.3054ZM71.2784 27.4091L74.858 34H73.8352L70.277 27.4091H71.2784Z" fill="black"/>
</svg>
