<svg width="305" height="155" viewBox="0 0 305 155" fill="none" xmlns="http://www.w3.org/2000/svg">
<path fill-rule="evenodd" clip-rule="evenodd" d="M77.443 0L79.886 1.36809L114.943 21L150 1.36809L152.443 0L154.886 1.36809L189.943 21L225 1.36809L227.443 0L229.886 1.36809L264.943 21L300 1.36809L304.886 10.0931L267.386 31.0931L264.943 32.4612L262.5 31.0931L227.443 11.4612L192.386 31.0931L189.943 32.4612L187.5 31.0931L152.443 11.4612L117.386 31.0931L114.943 32.4612L112.5 31.0931L77.443 11.4612L42.386 31.0931L39.943 32.4612L37.5 31.0931L0 10.0931L4.88603 1.36809L39.943 21L75 1.36809L77.443 0ZM77.443 61L79.886 62.3681L114.943 82L150 62.3681L152.443 61L154.886 62.3681L189.943 82L225 62.3681L227.443 61L229.886 62.3681L264.943 82L300 62.3681L304.886 71.0932L267.386 92.0932L264.943 93.4612L262.5 92.0932L227.443 72.4612L192.386 92.0932L189.943 93.4612L187.5 92.0932L152.443 72.4612L117.386 92.0932L114.943 93.4612L112.5 92.0932L77.443 72.4612L42.386 92.0932L39.943 93.4612L37.5 92.0932L0 71.0932L4.88603 62.3681L39.943 82L75 62.3681L77.443 61ZM79.886 123.368L77.443 122L75 123.368L39.943 143L4.88603 123.368L0 132.093L37.5 153.093L39.943 154.461L42.386 153.093L77.443 133.461L112.5 153.093L114.943 154.461L117.386 153.093L152.443 133.461L187.5 153.093L189.943 154.461L192.386 153.093L227.443 133.461L262.5 153.093L264.943 154.461L267.386 153.093L304.886 132.093L300 123.368L264.943 143L229.886 123.368L227.443 122L225 123.368L189.943 143L154.886 123.368L152.443 122L150 123.368L114.943 143L79.886 123.368Z" fill="#3D71F2"/>
</svg>
