<svg width="150" height="93" viewBox="0 0 150 93" fill="none" xmlns="http://www.w3.org/2000/svg">
<path d="M0.339943 14.4061L0.680221 14.7724L0.682425 14.7704L0.690102 14.7633L0.721487 14.7344C0.749459 14.7087 0.791424 14.6703 0.846771 14.62C0.957466 14.5194 1.12168 14.3714 1.33451 14.1827C1.76021 13.8052 2.38025 13.2652 3.15555 12.6168C4.70671 11.3196 6.8766 9.5908 9.35291 7.86311C11.8307 6.13436 14.606 4.41328 17.3685 3.12604C20.1384 1.83535 22.8553 1 25.2274 1C29.9517 1 33.55 4.30856 37.3309 7.81944L37.4053 7.88852C41.09 11.3102 44.9622 14.9061 50.1149 14.9061C55.2675 14.9061 59.1398 11.3102 62.8245 7.88852L62.8988 7.81944C66.6798 4.30856 70.278 1 75.0023 1C79.7267 1 83.3249 4.30856 87.1059 7.81944L87.1803 7.88854C90.8649 11.3102 94.7372 14.9061 99.8898 14.9061C105.042 14.9061 108.915 11.3102 112.599 7.88854L112.674 7.81944C116.455 4.30856 120.053 1 124.777 1C127.149 1 129.866 1.83535 132.636 3.12604C135.399 4.41328 138.174 6.13436 140.652 7.86311C143.128 9.5908 145.298 11.3196 146.849 12.6168C147.624 13.2652 148.245 13.8052 148.67 14.1827C148.883 14.3714 149.047 14.5194 149.158 14.62C149.213 14.6703 149.255 14.7087 149.283 14.7344L149.315 14.7633L149.324 14.7721L149.665 14.4061L149.973 14.0738C150.005 14.0396 150.005 14.0394 150.005 14.0394L150.002 14.0367L149.993 14.0287L149.96 13.998C149.93 13.9711 149.887 13.9314 149.83 13.8798C149.717 13.7767 149.55 13.626 149.334 13.4344C148.902 13.0514 148.274 12.505 147.491 11.8497C145.924 10.5396 143.731 8.79181 141.224 7.04299C138.719 5.29521 135.892 3.53977 133.059 2.21961C130.233 0.902913 127.361 0 124.777 0C119.625 0 115.752 3.59591 112.068 7.01758L111.993 7.08665C108.212 10.5975 104.614 13.9061 99.8898 13.9061C95.1655 13.9061 91.5673 10.5975 87.7863 7.08665L87.7119 7.01759C84.0273 3.59591 80.155 0 75.0023 0C69.8497 0 65.9774 3.59591 62.2928 7.01758L62.2184 7.08665C58.4374 10.5975 54.8392 13.9061 50.1149 13.9061C45.3906 13.9061 41.7923 10.5975 38.0114 7.08665L37.937 7.01757C34.2523 3.5959 30.3801 0 25.2274 0C22.6437 0 19.7718 0.902913 16.9461 2.21961C14.113 3.53977 11.2858 5.29521 8.78072 7.04299C6.27412 8.79181 4.08057 10.5396 2.51402 11.8497C1.73047 12.505 1.10309 13.0514 0.67108 13.4344C0.45506 13.626 0.287843 13.7767 0.174327 13.8798C0.117567 13.9314 0.0742294 13.9711 0.044925 13.998L0.0115685 14.0287L0.00063957 14.0388C0.00063957 14.0388 -0.000281781 14.0397 0.339943 14.4061Z" fill="#3D71F2"/>
<path d="M0.339943 39.4375L0.680221 39.8039L0.682425 39.8018L0.690102 39.7947L0.721487 39.7658C0.749459 39.7401 0.791424 39.7017 0.846771 39.6514C0.957466 39.5509 1.12168 39.4028 1.33451 39.2141C1.76021 38.8367 2.38025 38.2966 3.15555 37.6482C4.70671 36.351 6.8766 34.6222 9.35291 32.8945C11.8307 31.1658 14.606 29.4447 17.3685 28.1575C20.1384 26.8668 22.8553 26.0314 25.2274 26.0314C29.9517 26.0314 33.55 29.34 37.3309 32.8509L37.4053 32.92C41.09 36.3416 44.9622 39.9375 50.1149 39.9375C55.2675 39.9375 59.1398 36.3416 62.8245 32.92L62.8988 32.8509C66.6798 29.34 70.278 26.0314 75.0023 26.0314C79.7267 26.0314 83.3249 29.34 87.1059 32.8509L87.1803 32.92C90.8649 36.3416 94.7372 39.9375 99.8898 39.9375C105.042 39.9375 108.915 36.3416 112.599 32.92L112.674 32.8509C116.455 29.34 120.053 26.0314 124.777 26.0314C127.149 26.0314 129.866 26.8668 132.636 28.1575C135.399 29.4447 138.174 31.1658 140.652 32.8945C143.128 34.6222 145.298 36.351 146.849 37.6482C147.624 38.2966 148.245 38.8367 148.67 39.2141C148.883 39.4028 149.047 39.5509 149.158 39.6514C149.213 39.7017 149.255 39.7401 149.283 39.7658L149.315 39.7947L149.324 39.8035L149.665 39.4375C150.005 39.0711 150.005 39.0709 150.005 39.0709L150.002 39.0682L149.993 39.0602L149.96 39.0294C149.93 39.0025 149.887 38.9628 149.83 38.9113C149.717 38.8081 149.55 38.6574 149.334 38.4659C148.902 38.0828 148.274 37.5364 147.491 36.8811C145.924 35.571 143.731 33.8232 141.224 32.0744C138.719 30.3266 135.892 28.5712 133.059 27.251C130.233 25.9343 127.361 25.0314 124.777 25.0314C119.625 25.0314 115.752 28.6273 112.068 32.049L111.993 32.1181C108.212 35.629 104.614 38.9375 99.8898 38.9375C95.1655 38.9375 91.5673 35.629 87.7863 32.1181L87.7119 32.049C84.0273 28.6273 80.155 25.0314 75.0023 25.0314C69.8497 25.0314 65.9774 28.6273 62.2928 32.049L62.2184 32.1181C58.4374 35.629 54.8392 38.9375 50.1149 38.9375C45.3906 38.9375 41.7923 35.629 38.0114 32.1181L37.937 32.049C34.2523 28.6273 30.3801 25.0314 25.2274 25.0314C22.6437 25.0314 19.7718 25.9343 16.9461 27.251C14.113 28.5712 11.2858 30.3266 8.78072 32.0744C6.27412 33.8232 4.08057 35.571 2.51402 36.8811C1.73047 37.5364 1.10309 38.0828 0.67108 38.4659C0.45506 38.6574 0.287843 38.8081 0.174327 38.9113C0.117567 38.9628 0.0742294 39.0025 0.044925 39.0294L0.0115685 39.0602L0.00292648 39.0682L0.00063957 39.0703C0.00063957 39.0703 -0.000281781 39.0711 0.339943 39.4375Z" fill="#3D71F2"/>
<path d="M0.680221 64.8351L0.339943 64.4688C-0.000281781 64.1024 7.73141e-06 64.1021 7.73141e-06 64.1021L0.00292648 64.0994L0.0115685 64.0914L0.044925 64.0607C0.0742294 64.0338 0.117567 63.9941 0.174327 63.9425C0.287843 63.8394 0.45506 63.6887 0.67108 63.4971C1.10309 63.1141 1.73047 62.5677 2.51402 61.9124C4.08057 60.6023 6.27412 58.8545 8.78072 57.1057C11.2858 55.3579 14.113 53.6025 16.9461 52.2823C19.7718 50.9656 22.6437 50.0627 25.2274 50.0627C30.3801 50.0627 34.2523 53.6586 37.937 57.0803L38.0114 57.1493C41.7923 60.6602 45.3906 63.9688 50.1149 63.9688C54.8392 63.9688 58.4374 60.6602 62.2184 57.1493L62.2928 57.0803C65.9774 53.6586 69.8497 50.0627 75.0023 50.0627C80.155 50.0627 84.0273 53.6586 87.7119 57.0803L87.7863 57.1493C91.5673 60.6602 95.1655 63.9688 99.8898 63.9688C104.614 63.9688 108.212 60.6602 111.993 57.1493L112.068 57.0803C115.752 53.6586 119.625 50.0627 124.777 50.0627C127.361 50.0627 130.233 50.9656 133.059 52.2823C135.892 53.6025 138.719 55.3579 141.224 57.1057C143.731 58.8545 145.924 60.6023 147.491 61.9124C148.274 62.5677 148.902 63.1141 149.334 63.4971C149.55 63.6887 149.717 63.8394 149.83 63.9425C149.887 63.9941 149.93 64.0338 149.96 64.0607L149.993 64.0914L150.004 64.1015C150.004 64.1015 150.005 64.1024 149.665 64.4688L149.324 64.8351L149.322 64.8331L149.315 64.826L149.283 64.7971L149.263 64.7783L149.222 64.7411C149.203 64.7239 149.182 64.7044 149.158 64.6827C149.047 64.5821 148.883 64.4341 148.67 64.2454C148.245 63.8679 147.624 63.3279 146.849 62.6795C145.298 61.3822 143.128 59.6535 140.652 57.9258C138.174 56.197 135.399 54.476 132.636 53.1887C129.866 51.898 127.149 51.0627 124.777 51.0627C120.053 51.0627 116.455 54.3712 112.674 57.8821L112.599 57.9512C108.915 61.3729 105.042 64.9688 99.8898 64.9688C94.7372 64.9688 90.8649 61.3729 87.1803 57.9512L87.1059 57.8821C83.3249 54.3712 79.7267 51.0627 75.0023 51.0627C70.278 51.0627 66.6798 54.3712 62.8988 57.8821L62.8245 57.9512C59.1398 61.3729 55.2675 64.9688 50.1149 64.9688C44.9622 64.9688 41.09 61.3729 37.4053 57.9512L37.3309 57.8821C33.55 54.3712 29.9517 51.0627 25.2274 51.0627C22.8553 51.0627 20.1384 51.898 17.3685 53.1887C14.606 54.476 11.8307 56.197 9.35291 57.9258C6.8766 59.6535 4.70671 61.3822 3.15555 62.6795C2.38025 63.3279 1.76021 63.8679 1.33451 64.2454C1.12168 64.4341 0.957466 64.5821 0.846771 64.6827C0.791424 64.733 0.749459 64.7714 0.721487 64.7971L0.690102 64.826L0.680221 64.8351Z" fill="#3D71F2"/>
<path d="M0.339943 89.4994L0.680221 89.8658L0.690102 89.8566L0.721487 89.8277C0.749459 89.802 0.791424 89.7636 0.846771 89.7133C0.957466 89.6127 1.12168 89.4647 1.33451 89.276C1.76021 88.8986 2.38025 88.3585 3.15555 87.7101C4.70671 86.4129 6.8766 84.6841 9.35291 82.9564C11.8307 81.2277 14.606 79.5066 17.3685 78.2194C20.1384 76.9287 22.8553 76.0933 25.2274 76.0933C29.9517 76.0933 33.55 79.4019 37.3309 82.9128L37.4053 82.9818C41.09 86.4035 44.9622 89.9994 50.1149 89.9994C55.2675 89.9994 59.1398 86.4035 62.8245 82.9818L62.8988 82.9128C66.6798 79.4019 70.278 76.0933 75.0023 76.0933C79.7267 76.0933 83.3249 79.4019 87.1059 82.9128L87.1803 82.9819C90.8649 86.4035 94.7372 89.9994 99.8898 89.9994C105.042 89.9994 108.915 86.4035 112.599 82.9819L112.674 82.9128C116.455 79.4019 120.053 76.0933 124.777 76.0933C127.149 76.0933 129.866 76.9287 132.636 78.2194C135.399 79.5066 138.174 81.2277 140.652 82.9564C143.128 84.6841 145.298 86.4129 146.849 87.7101C147.624 88.3585 148.245 88.8986 148.67 89.276C148.883 89.4647 149.047 89.6127 149.158 89.7133C149.213 89.7636 149.255 89.802 149.283 89.8277L149.315 89.8566L149.322 89.8637L149.324 89.8654L149.665 89.4994C150.005 89.133 150.005 89.1328 150.005 89.1328L150.002 89.13L149.993 89.1221L149.96 89.0913C149.93 89.0644 149.887 89.0247 149.83 88.9732C149.717 88.87 149.55 88.7193 149.334 88.5278C148.902 88.1447 148.274 87.5983 147.491 86.943C145.924 85.6329 143.731 83.8851 141.224 82.1363C138.719 80.3885 135.892 78.6331 133.059 77.3129C130.233 75.9962 127.361 75.0933 124.777 75.0933C119.625 75.0933 115.752 78.6892 112.068 82.1109L111.993 82.18C108.212 85.6908 104.614 88.9994 99.8898 88.9994C95.1655 88.9994 91.5673 85.6908 87.7863 82.18L87.7119 82.1109C84.0273 78.6892 80.155 75.0933 75.0023 75.0933C69.8497 75.0933 65.9774 78.6892 62.2928 82.1109L62.2184 82.18C58.4374 85.6908 54.8392 88.9994 50.1149 88.9994C45.3906 88.9994 41.7923 85.6908 38.0114 82.18L37.937 82.1109C34.2523 78.6892 30.3801 75.0933 25.2274 75.0933C22.6437 75.0933 19.7718 75.9962 16.9461 77.3129C14.113 78.6331 11.2858 80.3885 8.78072 82.1363C6.27412 83.8851 4.08057 85.6329 2.51402 86.943C1.73047 87.5983 1.10309 88.1447 0.67108 88.5278C0.45506 88.7193 0.287843 88.87 0.174327 88.9732C0.117567 89.0247 0.0742294 89.0644 0.044925 89.0913L0.0115685 89.1221L0.00292648 89.13L0.00063957 89.1322C0.00063957 89.1322 -0.000281781 89.133 0.339943 89.4994Z" fill="#3D71F2"/>
<path d="M0.339943 17.4061L0.680221 17.7724L0.682425 17.7704L0.690102 17.7633L0.721487 17.7344C0.749459 17.7087 0.791424 17.6703 0.846771 17.62C0.957466 17.5194 1.12168 17.3714 1.33451 17.1827C1.76021 16.8052 2.38025 16.2652 3.15555 15.6168C4.70671 14.3196 6.8766 12.5908 9.35291 10.8631C11.8307 9.13436 14.606 7.41328 17.3685 6.12604C20.1384 4.83535 22.8553 4 25.2274 4C29.9517 4 33.55 7.30856 37.3309 10.8194L37.4053 10.8885C41.09 14.3102 44.9622 17.9061 50.1149 17.9061C55.2675 17.9061 59.1398 14.3102 62.8245 10.8885L62.8988 10.8194C66.6798 7.30856 70.278 4 75.0023 4C79.7267 4 83.3249 7.30856 87.1059 10.8194L87.1803 10.8885C90.8649 14.3102 94.7372 17.9061 99.8898 17.9061C105.042 17.9061 108.915 14.3102 112.599 10.8885L112.674 10.8194C116.455 7.30856 120.053 4 124.777 4C127.149 4 129.866 4.83535 132.636 6.12604C135.399 7.41328 138.174 9.13436 140.652 10.8631C143.128 12.5908 145.298 14.3196 146.849 15.6168C147.624 16.2652 148.245 16.8052 148.67 17.1827C148.883 17.3714 149.047 17.5194 149.158 17.62C149.213 17.6703 149.255 17.7087 149.283 17.7344L149.315 17.7633L149.324 17.7721L149.665 17.4061L149.973 17.0738C150.005 17.0396 150.005 17.0394 150.005 17.0394L150.002 17.0367L149.993 17.0287L149.96 16.998C149.93 16.9711 149.887 16.9314 149.83 16.8798C149.717 16.7767 149.55 16.626 149.334 16.4344C148.902 16.0514 148.274 15.505 147.491 14.8497C145.924 13.5396 143.731 11.7918 141.224 10.043C138.719 8.29521 135.892 6.53977 133.059 5.21961C130.233 3.90291 127.361 3 124.777 3C119.625 3 115.752 6.59591 112.068 10.0176L111.993 10.0866C108.212 13.5975 104.614 16.9061 99.8898 16.9061C95.1655 16.9061 91.5673 13.5975 87.7863 10.0866L87.7119 10.0176C84.0273 6.59591 80.155 3 75.0023 3C69.8497 3 65.9774 6.59591 62.2928 10.0176L62.2184 10.0866C58.4374 13.5975 54.8392 16.9061 50.1149 16.9061C45.3906 16.9061 41.7923 13.5975 38.0114 10.0866L37.937 10.0176C34.2523 6.5959 30.3801 3 25.2274 3C22.6437 3 19.7718 3.90291 16.9461 5.21961C14.113 6.53977 11.2858 8.29521 8.78072 10.043C6.27412 11.7918 4.08057 13.5396 2.51402 14.8497C1.73047 15.505 1.10309 16.0514 0.67108 16.4344C0.45506 16.626 0.287843 16.7767 0.174327 16.8798C0.117567 16.9314 0.0742294 16.9711 0.044925 16.998L0.0115685 17.0287L0.00063957 17.0388C0.00063957 17.0388 -0.000281781 17.0397 0.339943 17.4061Z" fill="white"/>
<path d="M0.339943 42.4375L0.680221 42.8039L0.682425 42.8018L0.690102 42.7947L0.721487 42.7658C0.749459 42.7401 0.791424 42.7017 0.846771 42.6514C0.957466 42.5509 1.12168 42.4028 1.33451 42.2141C1.76021 41.8367 2.38025 41.2966 3.15555 40.6482C4.70671 39.351 6.8766 37.6222 9.35291 35.8945C11.8307 34.1658 14.606 32.4447 17.3685 31.1575C20.1384 29.8668 22.8553 29.0314 25.2274 29.0314C29.9517 29.0314 33.55 32.34 37.3309 35.8509L37.4053 35.92C41.09 39.3416 44.9622 42.9375 50.1149 42.9375C55.2675 42.9375 59.1398 39.3416 62.8245 35.92L62.8988 35.8509C66.6798 32.34 70.278 29.0314 75.0023 29.0314C79.7267 29.0314 83.3249 32.34 87.1059 35.8509L87.1803 35.92C90.8649 39.3416 94.7372 42.9375 99.8898 42.9375C105.042 42.9375 108.915 39.3416 112.599 35.92L112.674 35.8509C116.455 32.34 120.053 29.0314 124.777 29.0314C127.149 29.0314 129.866 29.8668 132.636 31.1575C135.399 32.4447 138.174 34.1658 140.652 35.8945C143.128 37.6222 145.298 39.351 146.849 40.6482C147.624 41.2966 148.245 41.8367 148.67 42.2141C148.883 42.4028 149.047 42.5509 149.158 42.6514C149.213 42.7017 149.255 42.7401 149.283 42.7658L149.315 42.7947L149.324 42.8035L149.665 42.4375C150.005 42.0711 150.005 42.0709 150.005 42.0709L150.002 42.0682L149.993 42.0602L149.96 42.0294C149.93 42.0025 149.887 41.9628 149.83 41.9113C149.717 41.8081 149.55 41.6574 149.334 41.4659C148.902 41.0828 148.274 40.5364 147.491 39.8811C145.924 38.571 143.731 36.8232 141.224 35.0744C138.719 33.3266 135.892 31.5712 133.059 30.251C130.233 28.9343 127.361 28.0314 124.777 28.0314C119.625 28.0314 115.752 31.6273 112.068 35.049L111.993 35.1181C108.212 38.629 104.614 41.9375 99.8898 41.9375C95.1655 41.9375 91.5673 38.629 87.7863 35.1181L87.7119 35.049C84.0273 31.6273 80.155 28.0314 75.0023 28.0314C69.8497 28.0314 65.9774 31.6273 62.2928 35.049L62.2184 35.1181C58.4374 38.629 54.8392 41.9375 50.1149 41.9375C45.3906 41.9375 41.7923 38.629 38.0114 35.1181L37.937 35.049C34.2523 31.6273 30.3801 28.0314 25.2274 28.0314C22.6437 28.0314 19.7718 28.9343 16.9461 30.251C14.113 31.5712 11.2858 33.3266 8.78072 35.0744C6.27412 36.8232 4.08057 38.571 2.51402 39.8811C1.73047 40.5364 1.10309 41.0828 0.67108 41.4659C0.45506 41.6574 0.287843 41.8081 0.174327 41.9113C0.117567 41.9628 0.0742294 42.0025 0.044925 42.0294L0.0115685 42.0602L0.00292648 42.0682L0.00063957 42.0703C0.00063957 42.0703 -0.000281781 42.0711 0.339943 42.4375Z" fill="white"/>
<path d="M0.680221 67.8351L0.339943 67.4688C-0.000281781 67.1024 7.73141e-06 67.1021 7.73141e-06 67.1021L0.00292648 67.0994L0.0115685 67.0914L0.044925 67.0607C0.0742294 67.0338 0.117567 66.9941 0.174327 66.9425C0.287843 66.8394 0.45506 66.6887 0.67108 66.4971C1.10309 66.1141 1.73047 65.5677 2.51402 64.9124C4.08057 63.6023 6.27412 61.8545 8.78072 60.1057C11.2858 58.3579 14.113 56.6025 16.9461 55.2823C19.7718 53.9656 22.6437 53.0627 25.2274 53.0627C30.3801 53.0627 34.2523 56.6586 37.937 60.0803L38.0114 60.1493C41.7923 63.6602 45.3906 66.9688 50.1149 66.9688C54.8392 66.9688 58.4374 63.6602 62.2184 60.1493L62.2928 60.0803C65.9774 56.6586 69.8497 53.0627 75.0023 53.0627C80.155 53.0627 84.0273 56.6586 87.7119 60.0803L87.7863 60.1493C91.5673 63.6602 95.1655 66.9688 99.8898 66.9688C104.614 66.9688 108.212 63.6602 111.993 60.1493L112.068 60.0803C115.752 56.6586 119.625 53.0627 124.777 53.0627C127.361 53.0627 130.233 53.9656 133.059 55.2823C135.892 56.6025 138.719 58.3579 141.224 60.1057C143.731 61.8545 145.924 63.6023 147.491 64.9124C148.274 65.5677 148.902 66.1141 149.334 66.4971C149.55 66.6887 149.717 66.8394 149.83 66.9425C149.887 66.9941 149.93 67.0338 149.96 67.0607L149.993 67.0914L150.004 67.1015C150.004 67.1015 150.005 67.1024 149.665 67.4688L149.324 67.8351L149.322 67.8331L149.315 67.826L149.283 67.7971L149.263 67.7783L149.222 67.7411C149.203 67.7239 149.182 67.7044 149.158 67.6827C149.047 67.5821 148.883 67.4341 148.67 67.2454C148.245 66.8679 147.624 66.3279 146.849 65.6795C145.298 64.3822 143.128 62.6535 140.652 60.9258C138.174 59.197 135.399 57.476 132.636 56.1887C129.866 54.898 127.149 54.0627 124.777 54.0627C120.053 54.0627 116.455 57.3712 112.674 60.8821L112.599 60.9512C108.915 64.3729 105.042 67.9688 99.8898 67.9688C94.7372 67.9688 90.8649 64.3729 87.1803 60.9512L87.1059 60.8821C83.3249 57.3712 79.7267 54.0627 75.0023 54.0627C70.278 54.0627 66.6798 57.3712 62.8988 60.8821L62.8245 60.9512C59.1398 64.3729 55.2675 67.9688 50.1149 67.9688C44.9622 67.9688 41.09 64.3729 37.4053 60.9512L37.3309 60.8821C33.55 57.3712 29.9517 54.0627 25.2274 54.0627C22.8553 54.0627 20.1384 54.898 17.3685 56.1887C14.606 57.476 11.8307 59.197 9.35291 60.9258C6.8766 62.6535 4.70671 64.3822 3.15555 65.6795C2.38025 66.3279 1.76021 66.8679 1.33451 67.2454C1.12168 67.4341 0.957466 67.5821 0.846771 67.6827C0.791424 67.733 0.749459 67.7714 0.721487 67.7971L0.690102 67.826L0.680221 67.8351Z" fill="white"/>
<path d="M0.339943 92.4994L0.680221 92.8658L0.690102 92.8566L0.721487 92.8277C0.749459 92.802 0.791424 92.7636 0.846771 92.7133C0.957466 92.6127 1.12168 92.4647 1.33451 92.276C1.76021 91.8986 2.38025 91.3585 3.15555 90.7101C4.70671 89.4129 6.8766 87.6841 9.35291 85.9564C11.8307 84.2277 14.606 82.5066 17.3685 81.2194C20.1384 79.9287 22.8553 79.0933 25.2274 79.0933C29.9517 79.0933 33.55 82.4019 37.3309 85.9128L37.4053 85.9818C41.09 89.4035 44.9622 92.9994 50.1149 92.9994C55.2675 92.9994 59.1398 89.4035 62.8245 85.9818L62.8988 85.9128C66.6798 82.4019 70.278 79.0933 75.0023 79.0933C79.7267 79.0933 83.3249 82.4019 87.1059 85.9128L87.1803 85.9819C90.8649 89.4035 94.7372 92.9994 99.8898 92.9994C105.042 92.9994 108.915 89.4035 112.599 85.9819L112.674 85.9128C116.455 82.4019 120.053 79.0933 124.777 79.0933C127.149 79.0933 129.866 79.9287 132.636 81.2194C135.399 82.5066 138.174 84.2277 140.652 85.9564C143.128 87.6841 145.298 89.4129 146.849 90.7101C147.624 91.3585 148.245 91.8986 148.67 92.276C148.883 92.4647 149.047 92.6127 149.158 92.7133C149.213 92.7636 149.255 92.802 149.283 92.8277L149.315 92.8566L149.322 92.8637L149.324 92.8654L149.665 92.4994C150.005 92.133 150.005 92.1328 150.005 92.1328L150.002 92.13L149.993 92.1221L149.96 92.0913C149.93 92.0644 149.887 92.0247 149.83 91.9732C149.717 91.87 149.55 91.7193 149.334 91.5278C148.902 91.1447 148.274 90.5983 147.491 89.943C145.924 88.6329 143.731 86.8851 141.224 85.1363C138.719 83.3885 135.892 81.6331 133.059 80.3129C130.233 78.9962 127.361 78.0933 124.777 78.0933C119.625 78.0933 115.752 81.6892 112.068 85.1109L111.993 85.18C108.212 88.6908 104.614 91.9994 99.8898 91.9994C95.1655 91.9994 91.5673 88.6908 87.7863 85.18L87.7119 85.1109C84.0273 81.6892 80.155 78.0933 75.0023 78.0933C69.8497 78.0933 65.9774 81.6892 62.2928 85.1109L62.2184 85.18C58.4374 88.6908 54.8392 91.9994 50.1149 91.9994C45.3906 91.9994 41.7923 88.6908 38.0114 85.18L37.937 85.1109C34.2523 81.6892 30.3801 78.0933 25.2274 78.0933C22.6437 78.0933 19.7718 78.9962 16.9461 80.3129C14.113 81.6331 11.2858 83.3885 8.78072 85.1363C6.27412 86.8851 4.08057 88.6329 2.51402 89.943C1.73047 90.5983 1.10309 91.1447 0.67108 91.5278C0.45506 91.7193 0.287843 91.87 0.174327 91.9732C0.117567 92.0247 0.0742294 92.0644 0.044925 92.0913L0.0115685 92.1221L0.00292648 92.13L0.00063957 92.1322C0.00063957 92.1322 -0.000281781 92.133 0.339943 92.4994Z" fill="white"/>
</svg>
