<?xml version="1.0" encoding="utf-8"?>
<!-- Generator: Adobe Illustrator 28.2.0, SVG Export Plug-In . SVG Version: 6.00 Build 0)  -->
<svg version="1.1" id="Layer_1" xmlns="http://www.w3.org/2000/svg" xmlns:xlink="http://www.w3.org/1999/xlink" x="0px" y="0px"
	 viewBox="0 0 500 500" style="enable-background:new 0 0 500 500;" xml:space="preserve">
<style type="text/css">
	.st0{fill:#DFEAF7;}
	.st1{fill:#3D71F2;}
	.st2{fill:#FFB0B3;}
	.st3{fill:#002D53;}
	.st4{fill:#FF7A72;}
	.st5{fill:#FFB3AE;}
	.st6{fill:#6190E5;}
	.st7{fill:#F1F3F6;}
	.st8{fill:#D18C7E;}
	.st9{fill:#BC7F72;}
	.st10{fill:#FFFFFF;}
</style>
<g id="BACKGROUND">
</g>
<g id="OBJECTS">
	<g>
		<g>
			<path class="st0" d="M487.75,367.97c-7.31,15.08-19.68,28.55-35.81,40.11c-79.79,57.27-251.66,68.4-354.75,0
				c-17.02-11.23-32.13-24.68-44.66-40.41c-33.4-41.95-53.18-106.1-48.47-166.7C6,176.1,8.9,144.63,31.74,117.29
				c46.09-55.08,131.08-42.6,135.38-41.9c59.52,9.66,60.55,45.17,146.62,99.71c95.73,60.74,150.24,52.16,173.74,106.42
				C498.27,306.37,500.93,340.69,487.75,367.97z"/>
		</g>
		<g>
			<g>
				<g>
					<path class="st1" d="M181.04,387.43l19.97-89.61c5.01-22.46,20.06-41.41,40.84-51.34l58.92-28.2l60.47,25.14
						c24.31,10.12,42.06,31.56,47.47,57.33l18.16,86.69H181.04z"/>
				</g>
				<g>
					<path class="st2" d="M263.42,358.77c0,0,15.75-20.65,23.33-19.35c7.58,1.33,21.57,26.04,21.57,26.04h62.5l1.76-15.81
						c0,0,39.98,7.25,54.27,37.78H270.43L263.42,358.77z"/>
				</g>
				<g>
					<path class="st3" d="M372.61,351.54c-0.97,0-1.81-0.73-1.89-1.73l-5.44-53.35c-0.11-1.06,0.65-2,1.71-2.11
						c1.06-0.08,2,0.65,2.11,1.71l5.44,53.35c0.11,1.06-0.65,2-1.71,2.11C372.72,351.54,372.66,351.54,372.61,351.54z"/>
				</g>
			</g>
			<g>
				<g>
					<path class="st2" d="M272.76,209.26v41.52c0,0-2.98,25.71,13.51,23.38c16.48-2.3,33.97-47.83,33.97-47.83l-2.71-40.38
						L272.76,209.26z"/>
				</g>
				<g>
					<polygon class="st4" points="319.61,217.22 272.76,247.26 272.76,209.26 317.47,185.96 					"/>
				</g>
				<g>
					
						<ellipse transform="matrix(0.361 -0.9326 0.9326 0.361 25.378 366.1112)" class="st5" cx="279.84" cy="164.54" rx="61.63" ry="43.09"/>
				</g>
				<g>
					<path class="st3" d="M325.46,156.99c0,0-22.92-12.56-35.46-41.76c0,0-58.65,45.9-72.51,17.78
						c-13.83-28.12,20.43-50.32,24.39-31.21c0,0,31.59-51.18,83.58-17.13C377.43,118.75,325.46,156.99,325.46,156.99z"/>
				</g>
				<g>
					<path class="st5" d="M333.96,170.8c-3.33,9.31-10.45,15.27-15.89,13.32c-5.44-1.95-7.15-11.07-3.82-20.38
						c3.33-9.31,10.45-15.27,15.89-13.32C335.58,152.37,337.29,161.49,333.96,170.8z"/>
				</g>
			</g>
		</g>
		<g>
			<g>
				<g>
					<rect x="74.37" y="311.41" class="st6" width="56.03" height="76.03"/>
				</g>
				<g>
					<path class="st6" d="M53.1,349.68c0,6.63,5.39,11.99,12.02,11.99c3.74,0,7.06-1.71,9.26-4.36v16.13
						c-2.84,1.14-5.98,1.73-9.26,1.73c-14.1,0-25.52-11.39-25.52-25.47c0-14.1,11.42-25.52,25.52-25.52c3.25,0,6.39,0.6,9.26,1.73
						v16.13c-2.19-2.65-5.52-4.36-9.26-4.36C58.51,337.66,53.1,343.02,53.1,349.68z"/>
				</g>
			</g>
			<g>
				<path class="st7" d="M90.07,254.57c6.9-10.53,16.92-19.03,21.98-30.56c6.96-15.83,3.3-34.48,8.61-50.94
					c7.69-23.87,32.05-37.95,46.31-58.6c15.54-22.46,17.94-53.35,6.12-77.98c-5.41-11.23-13.91-21.41-25.25-26.58
					c-13.45-6.12-29.85-4.41-42.52,3.22c-12.67,7.63-21.63,20.71-25.6,34.94c-9.82,35.1,9.18,72.94,1.62,108.62
					c-4.49,21.22-18,39.65-22.55,60.84c-3.98,18.43-0.24,38.16,9.28,54.32c2.79,4.74,10.56,19.7,14.7,9.42
					c1.57-3.9,0.6-8.72,1.46-12.8C85.25,263.55,87.31,258.79,90.07,254.57z"/>
			</g>
		</g>
		<g>
			<g>
				<rect x="43.3" y="387.43" class="st8" width="438.14" height="20.65"/>
			</g>
			<g>
				<path class="st9" d="M451.94,408.08c-79.79,57.27-251.66,68.4-354.75,0H451.94z"/>
			</g>
		</g>
		<g>
			<g>
				<path class="st10" d="M278.96,377.5c1.33,5.47-2.17,9.93-7.79,9.93H141.33c-5.63,0-11.31-4.47-12.64-9.93l-23.68-96.6
					c-1.33-5.47,2.17-9.93,7.79-9.93h129.83c5.63,0,11.31,4.47,12.64,9.93L278.96,377.5z"/>
			</g>
			<g>
				<path class="st0" d="M204.75,330.57c1.43,7.9-3.79,14.29-11.67,14.29c-7.9,0-15.48-6.39-16.92-14.29
					c-1.43-7.9,3.79-14.29,11.67-14.29C195.73,316.28,203.28,322.69,204.75,330.57z"/>
			</g>
		</g>
	</g>
</g>
</svg>
