<svg width="28" height="28" viewBox="0 0 28 28" fill="none" xmlns="http://www.w3.org/2000/svg">
<path d="M10.3523 20.9781L4.86719 15.236C4.53906 14.9188 4.375 14.4867 4.375 14.011C4.375 13.5352 4.53906 13.1086 4.86719 12.786L10.3523 7.0219C11.0031 6.3383 12.0641 6.3383 12.7148 7.0219C13.3656 7.70549 13.3656 8.81018 12.7148 9.49377L10.0789 12.25L21.9461 12.25C22.8758 12.25 23.625 13.0321 23.625 14C23.625 14.968 22.8758 15.75 21.9516 15.75L10.0844 15.75L12.7203 18.5063C13.3711 19.1899 13.3711 20.2946 12.7203 20.9781C12.0641 21.6617 11.0086 21.6617 10.3523 20.9781Z" fill="white"/>
</svg>
