<svg width="28" height="28" viewBox="0 0 28 28" fill="none" xmlns="http://www.w3.org/2000/svg">
<path d="M17.6477 7.02185L23.1328 12.764C23.4609 13.0812 23.625 13.5133 23.625 13.989C23.625 14.4648 23.4609 14.8914 23.1328 15.214L17.6477 20.9781C16.9969 21.6617 15.9359 21.6617 15.2852 20.9781C14.6344 20.2945 14.6344 19.1898 15.2852 18.5062L17.9211 15.75H6.05391C5.12422 15.75 4.375 14.9679 4.375 14C4.375 13.032 5.12422 12.25 6.04844 12.25H17.9156L15.2797 9.49373C14.6289 8.81013 14.6289 7.70544 15.2797 7.02185C15.9359 6.33826 16.9914 6.33826 17.6477 7.02185Z" fill="white"/>
</svg>
