<svg width="16" height="18" viewBox="0 0 16 18" fill="none" xmlns="http://www.w3.org/2000/svg">
<path d="M8 17.27C7.80115 17.2698 7.61051 17.1907 7.47 17.05L0.469996 10.05C0.282431 9.85709 0.212038 9.57875 0.285332 9.31986C0.358627 9.06096 0.564474 8.86083 0.825332 8.79486C1.08619 8.72888 1.36243 8.80709 1.55 9.00001L8 15.45L14.45 9.00001C14.637 8.79936 14.9186 8.71676 15.1843 8.78462C15.45 8.85249 15.6575 9.05999 15.7254 9.32572C15.7932 9.59145 15.7106 9.87304 15.51 10.06L8.51 17.06C8.37284 17.1922 8.1905 17.2673 8 17.27Z" fill="white"/>
<path d="M8 17.26C7.58803 17.2546 7.25538 16.922 7.25 16.51V1.51001C7.25 1.24206 7.39294 0.994465 7.625 0.860491C7.85705 0.726516 8.14294 0.726516 8.375 0.860491C8.60705 0.994465 8.75 1.24206 8.75 1.51001V16.51C8.74461 16.922 8.41196 17.2546 8 17.26Z" fill="white"/>
<path d="M8 17.27C7.80115 17.2698 7.61051 17.1907 7.47 17.05L0.469996 10.05C0.282431 9.85709 0.212038 9.57875 0.285332 9.31986C0.358627 9.06096 0.564474 8.86083 0.825332 8.79486C1.08619 8.72888 1.36243 8.80709 1.55 9.00001L8 15.45L14.45 9.00001C14.637 8.79936 14.9186 8.71676 15.1843 8.78462C15.45 8.85249 15.6575 9.05999 15.7254 9.32572C15.7932 9.59145 15.7106 9.87304 15.51 10.06L8.51 17.06C8.37284 17.1922 8.1905 17.2673 8 17.27Z" fill="white"/>
<path d="M8 17.26C7.58803 17.2546 7.25538 16.922 7.25 16.51V1.51001C7.25 1.24206 7.39294 0.994465 7.625 0.860491C7.85705 0.726516 8.14294 0.726516 8.375 0.860491C8.60705 0.994465 8.75 1.24206 8.75 1.51001V16.51C8.74461 16.922 8.41196 17.2546 8 17.26Z" fill="white"/>
</svg>
