<svg width="72" height="72" viewBox="0 0 72 72" fill="none" xmlns="http://www.w3.org/2000/svg">
<g clip-path="url(#clip0_57_267)">
<path fill-rule="evenodd" clip-rule="evenodd" d="M36 72C55.8823 72 72 55.8823 72 36C72 16.1178 55.8823 0 36 0C16.1178 0 0 16.1178 0 36C0 55.8823 16.1178 72 36 72Z" fill="white"/>
<path fill-rule="evenodd" clip-rule="evenodd" d="M26.2597 52.5879V30.6294H19.4728V52.5879H26.2597ZM26.2597 22.846C26.2193 20.8809 24.9096 19.3848 22.7821 19.3848C20.654 19.3848 19.2635 20.8809 19.2635 22.846C19.2635 24.7684 20.6135 26.3078 22.7007 26.3078H22.7411C24.9096 26.3078 26.2597 24.7684 26.2597 22.846ZM37.332 52.5879V40.077C37.332 39.4074 37.3804 38.7379 37.5773 38.2606C38.1156 36.9221 39.3407 35.5365 41.3978 35.5365C44.0927 35.5365 45.7827 37.0659 45.7827 40.077V52.5879H52.6154V39.7422C52.6154 32.8609 48.942 29.659 44.0423 29.659C40.0249 29.659 38.2615 31.905 37.2823 33.4337L37.3314 30.4968H30.5106C30.6087 32.599 30.5106 52.5879 30.5106 52.5879H37.332Z" fill="black"/>
</g>
<defs>
<clipPath id="clip0_57_267">
<rect width="72" height="72" fill="white"/>
</clipPath>
</defs>
</svg>
