<svg width="72" height="72" viewBox="0 0 72 72" fill="none" xmlns="http://www.w3.org/2000/svg">
<g clip-path="url(#clip0_57_257)">
<path d="M36 72C55.8823 72 72 55.8823 72 36C72 16.1177 55.8823 0 36 0C16.1177 0 0 16.1177 0 36C0 55.8823 16.1177 72 36 72Z" fill="white"/>
<g opacity="0.2">
<path d="M32.5823 28.5111C32.1131 23.1179 26.487 20.4719 26.2485 20.3639C26.0246 20.2581 25.7749 20.2266 25.5341 20.2682C19.0384 21.346 18.0619 25.126 18.0225 25.2835C17.9685 25.504 17.9786 25.7324 18.0473 25.9461C25.794 49.9829 41.895 54.439 47.1881 55.9049C47.5954 56.0174 47.9318 56.1085 48.1871 56.1917C48.3109 56.2334 48.438 56.2502 48.5651 56.2502C48.7395 56.2502 48.9139 56.2131 49.0736 56.14C49.2356 56.0669 53.0606 54.2646 53.9955 48.3876C54.0371 48.1322 53.9955 47.8667 53.8774 47.6361C53.7941 47.4741 51.7928 43.6671 46.2454 42.3216C45.8573 42.2215 45.4601 42.3239 45.1609 42.5792C43.4104 44.0744 40.9928 45.6674 39.9499 45.8316C32.9558 42.4116 29.0509 35.8506 28.9035 34.6064C28.818 33.9066 30.42 31.4496 32.2639 29.4516C32.4968 29.1985 32.6149 28.8554 32.5823 28.5111Z" fill="#231F20"/>
</g>
<path d="M32.5823 26.2611C32.1131 20.8679 26.487 18.2219 26.2485 18.1139C26.0246 18.0081 25.7749 17.9766 25.5341 18.0182C19.0384 19.096 18.0619 22.876 18.0225 23.0335C17.9685 23.254 17.9786 23.4824 18.0473 23.6961C25.794 47.7329 41.895 52.189 47.1881 53.6549C47.5954 53.7674 47.9318 53.8585 48.1871 53.9417C48.3109 53.9834 48.438 54.0002 48.5651 54.0002C48.7395 54.0002 48.9139 53.9631 49.0736 53.89C49.2356 53.8169 53.0606 52.0146 53.9955 46.1376C54.0371 45.8822 53.9955 45.6167 53.8774 45.3861C53.7941 45.2241 51.7928 41.4171 46.2454 40.0716C45.8573 39.9715 45.4601 40.0739 45.1609 40.3292C43.4104 41.8244 40.9928 43.4174 39.9499 43.5816C32.9558 40.1616 29.0509 33.6006 28.9035 32.3564C28.818 31.6566 30.42 29.1996 32.2639 27.2016C32.4968 26.9485 32.6149 26.6054 32.5823 26.2611Z" fill="black"/>
</g>
<defs>
<clipPath id="clip0_57_257">
<rect width="72" height="72" fill="white"/>
</clipPath>
</defs>
</svg>
