<svg width="25" height="26" viewBox="0 0 25 26" fill="none" xmlns="http://www.w3.org/2000/svg">
<path d="M5 0.5C2.23 0.5 0 2.73 0 5.5V20.5C0 23.27 2.23 25.5 5 25.5H20C22.77 25.5 25 23.27 25 20.5V5.5C25 2.73 22.77 0.5 20 0.5H5ZM9.8418 4.81592H15.1587C15.6842 4.81592 16.1069 5.20755 16.1069 5.69385V13.3135H19.0171C19.1242 13.3135 19.4192 13.6377 19.0264 14.0146L12.4795 20.2964L5.93701 14.0186C5.64351 13.7469 5.81589 13.3135 5.94189 13.3135H8.89307V5.69385C8.86122 5.20859 9.31629 4.81592 9.8418 4.81592ZM6.43066 21.168H18.5693C18.9234 21.168 19.2085 21.453 19.2085 21.8071V22.3647C19.2085 22.7188 18.9234 23.0039 18.5693 23.0039H6.43066C6.07658 23.0039 5.7915 22.7188 5.7915 22.3647V21.8071C5.7915 21.453 6.07658 21.168 6.43066 21.168Z" fill="white"/>
</svg>
