<svg width="28" height="28" viewBox="0 0 28 28" fill="none" xmlns="http://www.w3.org/2000/svg">
<path d="M9.05023 9.87524L10.7002 8.22531L14 11.5251L17.2998 8.22535L18.9497 9.87527L14 14.825L9.05023 9.87524Z" fill="white"/>
<path d="M10.7002 13.175L9.05023 14.8249L13.9999 19.7748L18.9497 14.8249L17.2998 13.175L14 16.4748L10.7002 13.175Z" fill="white"/>
<path fill-rule="evenodd" clip-rule="evenodd" d="M1.16669 5.83334C1.16669 3.25601 3.25602 1.16667 5.83335 1.16667H22.1667C24.744 1.16667 26.8334 3.25601 26.8334 5.83334V22.1667C26.8334 24.744 24.744 26.8333 22.1667 26.8333H5.83335C3.25602 26.8333 1.16669 24.744 1.16669 22.1667V5.83334ZM5.83335 3.5H22.1667C23.4554 3.5 24.5 4.54467 24.5 5.83334V22.1667C24.5 23.4554 23.4554 24.5 22.1667 24.5H5.83335C4.54469 24.5 3.50002 23.4554 3.50002 22.1667V5.83334C3.50002 4.54467 4.54469 3.5 5.83335 3.5Z" fill="white"/>
</svg>
