<svg width="56" height="56" viewBox="0 0 56 56" fill="none" xmlns="http://www.w3.org/2000/svg">
<path d="M54.9434 25.5045L30.4924 1.057C30.1577 0.722054 29.7602 0.456353 29.3227 0.275073C28.8852 0.0937934 28.4163 0.000488281 27.9427 0.000488281C27.4691 0.000488281 27.0002 0.0937934 26.5627 0.275073C26.1252 0.456353 25.7277 0.722054 25.3929 1.057L20.3179 6.132L26.7579 12.572C27.5174 12.3127 28.3346 12.2721 29.116 12.4549C29.8975 12.6377 30.6118 13.0366 31.1775 13.6059C31.7432 14.1752 32.1374 14.8921 32.3152 15.6747C32.493 16.4573 32.4471 17.2742 32.1829 18.032L38.3884 24.241C39.3065 23.9177 40.3073 23.9168 41.2261 24.2382C42.1448 24.5597 42.9267 25.1844 43.4429 26.0096C43.9592 26.8347 44.1791 27.811 44.0664 28.7778C43.9537 29.7446 43.5151 30.6442 42.8229 31.3285C42.1222 32.0336 41.1984 32.4734 40.2093 32.573C39.2203 32.6726 38.2273 32.4257 37.4001 31.8745C36.5728 31.3233 35.9626 30.5019 35.6737 29.5508C35.3848 28.5996 35.4351 27.5777 35.8159 26.6595L30.0304 20.8705V36.106C30.9098 36.5413 31.6135 37.2649 32.0241 38.1561C32.4347 39.0473 32.5275 40.0523 32.2869 41.0036C32.0464 41.9549 31.487 42.795 30.7022 43.3839C29.9173 43.9728 28.9543 44.2749 27.9737 44.2399C26.9931 44.2049 26.0541 43.8348 25.3132 43.1914C24.5724 42.548 24.0744 41.6702 23.9023 40.7041C23.7303 39.7381 23.8945 38.7422 24.3676 37.8826C24.8408 37.023 25.5942 36.3515 26.5024 35.98V20.6045C25.9784 20.3898 25.5021 20.0735 25.101 19.6738C24.6998 19.2742 24.3817 18.7991 24.165 18.2759C23.9483 17.7527 23.8373 17.1918 23.8384 16.6255C23.8395 16.0593 23.9527 15.4988 24.1714 14.9765L17.8259 8.6275L1.06094 25.3925C0.725991 25.7273 0.46029 26.1248 0.27901 26.5623C0.0977302 26.9998 0.00442505 27.4687 0.00442505 27.9422C0.00442505 28.4158 0.0977302 28.8847 0.27901 29.3222C0.46029 29.7597 0.725991 30.1572 1.06094 30.492L25.5119 54.943C25.8467 55.2779 26.2442 55.5436 26.6817 55.7249C27.1192 55.9062 27.5881 55.9995 28.0617 55.9995C28.5353 55.9995 29.0042 55.9062 29.4417 55.7249C29.8792 55.5436 30.2767 55.2779 30.6114 54.943L54.9469 30.6075C55.6225 29.9309 56.002 29.0139 56.002 28.0577C56.002 27.1016 55.6225 26.1846 54.9469 25.508" fill="white"/>
</svg>
