<svg width="58" height="58" viewBox="0 0 58 58" fill="none" xmlns="http://www.w3.org/2000/svg">
<g clip-path="url(#clip0_37_15)">
<path fill-rule="evenodd" clip-rule="evenodd" d="M33.5463 40.1213C39.1974 39.4539 45.2077 37.3992 45.2077 27.6386C45.2077 24.8643 44.2308 22.6035 42.6396 20.8566C42.8963 20.1893 43.7175 17.6718 42.3299 14.179C42.3299 14.179 40.2751 13.5108 35.4471 16.7469C33.3923 16.1825 31.1322 15.8222 29.0261 15.8222C26.8677 15.8222 24.6068 16.1825 22.6033 16.7469C17.723 13.5108 15.6683 14.179 15.6683 14.179C14.2816 17.6718 15.1038 20.1893 15.3604 20.8566C13.7675 22.6033 12.7915 24.8643 12.7915 27.6386C12.7915 37.3992 18.8019 39.4539 24.4529 40.1213C23.7342 40.7389 23.0662 41.9194 22.8095 43.5636C21.3706 44.1796 17.6203 45.3617 15.3604 41.4574C15.3604 41.4574 14.0242 39.0434 11.5074 38.8895C11.5074 38.8895 8.98989 38.8381 11.3021 40.4292C11.3021 40.4292 12.9968 41.2008 14.1276 44.1281C14.1276 44.1281 15.6683 49.0093 22.7573 47.4677V51.8339C22.7573 52.5029 22.2441 53.2728 20.9601 53.0675C10.8907 49.7279 3.64766 40.1725 3.64766 28.9739C3.64766 14.9489 15.0003 3.59645 29.0261 3.59645C42.999 3.59645 54.4037 14.949 54.3523 28.9739C54.3523 40.1725 47.1085 49.6765 37.0398 53.0675C35.755 53.3242 35.2417 52.5543 35.2417 51.8339V44.7971C35.2418 42.4326 34.4701 40.8928 33.5463 40.1213ZM58 29.0261C58 12.9968 45.0025 0 29.0261 0C12.9968 0 0 12.9968 0 29.0261C0 45.0025 12.9968 58 29.0261 58C45.0025 58 58 45.0025 58 29.0261Z" fill="white"/>
</g>
<defs>
<clipPath id="clip0_37_15">
<rect width="58" height="58" fill="white"/>
</clipPath>
</defs>
</svg>
