<svg width="51" height="50" viewBox="0 0 51 50" fill="none" xmlns="http://www.w3.org/2000/svg">
<g clip-path="url(#clip0_22_48)">
<path d="M0.25 9.02778V40.9722C0.25 45.9581 4.29186 50 9.27778 50H41.2222C46.2081 50 50.25 45.9581 50.25 40.9722V9.02778C50.25 4.04186 46.2081 0 41.2222 0H9.27778C4.29186 0 0.25 4.04186 0.25 9.02778ZM25.25 18.0556C26.4006 18.0556 27.3333 18.9883 27.3333 20.1389V36.8056C27.3333 39.4903 25.1569 41.6667 22.4722 41.6667H19C17.8494 41.6667 16.9167 40.7339 16.9167 39.5833C16.9167 38.4328 17.8494 37.5 19 37.5H22.4722C22.8558 37.5 23.1667 37.1892 23.1667 36.8056V20.1389C23.1667 18.9883 24.0994 18.0556 25.25 18.0556ZM30.8056 22.9167C30.8056 20.2319 32.9819 18.0556 35.6667 18.0556H39.8333C40.9839 18.0556 41.9167 18.9883 41.9167 20.1389C41.9167 21.2894 40.9839 22.2222 39.8333 22.2222H35.6667C35.2831 22.2222 34.9722 22.5331 34.9722 22.9167V27.0833C34.9722 27.4669 35.2831 27.7778 35.6667 27.7778H37.0556C39.7403 27.7778 41.9167 29.9542 41.9167 32.6389V36.8056C41.9167 39.4903 39.7403 41.6667 37.0556 41.6667H32.8889C31.7383 41.6667 30.8056 40.7339 30.8056 39.5833C30.8056 38.4328 31.7383 37.5 32.8889 37.5H37.0556C37.4392 37.5 37.75 37.1892 37.75 36.8056V32.6389C37.75 32.2553 37.4392 31.9444 37.0556 31.9444H35.6667C32.9819 31.9444 30.8056 29.7681 30.8056 27.0833V22.9167Z" fill="white"/>
</g>
<defs>
<clipPath id="clip0_22_48">
<rect width="50" height="50" fill="white" transform="translate(0.25)"/>
</clipPath>
</defs>
</svg>
