<svg width="57" height="58" viewBox="0 0 57 58" fill="none" xmlns="http://www.w3.org/2000/svg">
<path d="M28.556 57.8693C12.735 57.9492 -0.243736 44.8037 0.12154 28.7599C0.463986 13.4692 13.1459 0.803016 28.9327 0.985592C44.5254 1.16817 57.4014 14.1539 56.9904 30.1977C56.6023 45.4199 44.046 57.9378 28.556 57.8693ZM3.58025 29.456C3.70581 43.7539 15.2691 54.7427 28.9441 54.5373C42.2082 54.3319 53.5089 43.5371 53.5203 29.4331C53.5203 15.1466 41.8657 4.10079 28.1565 4.32901C14.8696 4.54582 3.67157 15.3634 3.58025 29.456Z" fill="white"/>
<path d="M35.3085 41.7502C35.3085 41.5057 35.3085 41.2946 35.3085 41.0724C35.3085 38.1059 35.3196 35.1505 35.2974 32.184C35.2974 31.6729 35.2529 31.1396 35.1307 30.6507C34.7307 29.0064 33.3975 28.1842 31.4753 28.3397C30.0532 28.4508 28.7755 29.7174 28.6755 31.184C28.6088 32.0729 28.631 32.9617 28.6199 33.8506C28.6088 36.2615 28.6199 38.6614 28.6199 41.0724C28.6199 41.2946 28.6199 41.5057 28.6199 41.7613C26.82 41.7613 25.0646 41.7613 23.2758 41.7613C23.2758 35.9838 23.2758 30.1952 23.2758 24.3844C25.0201 24.3844 26.7645 24.3844 28.5755 24.3844C28.5755 25.0621 28.5755 25.751 28.5755 26.5843C28.7644 26.362 28.8755 26.2509 28.9532 26.1176C31.3531 22.5178 37.8639 22.9067 39.7971 27.1509C40.3304 28.3286 40.6527 29.5619 40.6638 30.8507C40.6971 34.4172 40.686 37.9948 40.686 41.5724C40.686 41.6279 40.6749 41.6835 40.6527 41.7724C38.8972 41.7502 37.1306 41.7502 35.3085 41.7502Z" fill="white"/>
<path d="M19.8537 41.7724C18.0649 41.7724 16.3316 41.7724 14.554 41.7724C14.554 36.006 14.554 30.2619 14.554 24.4844C16.3205 24.4844 18.0649 24.4844 19.8537 24.4844C19.8537 30.2285 19.8537 35.9727 19.8537 41.7724Z" fill="white"/>
<path d="M17.0427 21.0179C15.4539 21.0068 14.3429 19.8513 14.354 18.2513C14.3651 16.6514 15.5206 15.5515 17.176 15.5626C18.7537 15.5737 19.8981 16.7403 19.8759 18.3291C19.8759 19.9068 18.6871 21.029 17.0427 21.0179Z" fill="white"/>
</svg>
