<svg width="50" height="56" viewBox="0 0 50 56" fill="none" xmlns="http://www.w3.org/2000/svg">
<path d="M24.875 55.5624C24.1422 55.5624 23.3984 55.3655 22.7531 54.9937L16.0047 51.0015C14.9984 50.4327 15.4906 50.2358 15.8187 50.1265C17.1641 49.6562 17.4375 49.5577 18.8703 48.7374C19.0234 48.6499 19.2203 48.6827 19.3734 48.7812L24.5578 51.8546C24.7438 51.964 25.0063 51.964 25.1813 51.8546L45.3828 40.1952C45.5687 40.0858 45.6891 39.8671 45.6891 39.6483V16.3296C45.6891 16.0999 45.5687 15.8921 45.3719 15.7718L25.1813 4.12334C24.9953 4.01397 24.7438 4.01397 24.5578 4.12334L4.37812 15.7827C4.18125 15.8921 4.06094 16.1108 4.06094 16.3405V39.6483C4.06094 39.8671 4.18125 40.0858 4.37812 40.1843L9.9125 43.378C12.9203 44.8765 14.7578 43.1155 14.7578 41.3327V18.3202C14.7578 17.9921 15.0203 17.7405 15.3484 17.7405H17.9078C18.225 17.7405 18.4984 17.9921 18.4984 18.3202V41.3437C18.4984 45.3468 16.3109 47.6437 12.5156 47.6437C11.3453 47.6437 10.4266 47.6437 7.86719 46.3749L2.57344 43.3233C1.26094 42.5687 0.451561 41.1577 0.451561 39.6374V16.3296C0.451561 14.8202 1.26094 13.3983 2.57344 12.6437L22.7531 0.984277C24.0328 0.262402 25.7281 0.262402 26.9969 0.984277L47.1984 12.6546C48.5109 13.4093 49.3203 14.8202 49.3203 16.3405V39.6483C49.3203 41.1577 48.5109 42.5687 47.1984 43.3343L26.9969 54.9937C26.3516 55.3655 25.6187 55.5624 24.875 55.5624ZM41.1828 32.5827C41.1828 28.2187 38.2297 27.0593 32.0281 26.239C25.75 25.4077 25.1156 24.9812 25.1156 23.5155C25.1156 22.3015 25.6516 20.6827 30.3 20.6827C34.4453 20.6827 35.9766 21.5796 36.6109 24.3796C36.6656 24.6421 36.9062 24.839 37.1797 24.839H39.8047C39.9688 24.839 40.1219 24.7733 40.2313 24.653C40.3406 24.5327 40.3953 24.3687 40.3844 24.2046C39.9797 19.3812 36.775 17.139 30.3 17.139C24.5359 17.139 21.1016 19.5671 21.1016 23.6468C21.1016 28.0655 24.525 29.2905 30.0484 29.8374C36.6656 30.4827 37.1797 31.4562 37.1797 32.7577C37.1797 35.0108 35.3641 35.9733 31.1094 35.9733C25.7609 35.9733 24.5906 34.628 24.1969 31.9702C24.1531 31.6858 23.9125 31.478 23.6172 31.478H21.0031C20.675 31.478 20.4234 31.7405 20.4234 32.0577C20.4234 35.4593 22.2719 39.5171 31.1203 39.5171C37.5078 39.5062 41.1828 36.9796 41.1828 32.5827Z" fill="white"/>
</svg>
