<svg width="63" height="48" viewBox="0 0 63 48" fill="none" xmlns="http://www.w3.org/2000/svg">
<path d="M51.0787 45.3693L51.1381 45.253C51.1924 45.1564 51.2382 45.0553 51.275 44.9508L51.2802 44.9378C51.4656 44.4369 51.5138 43.8955 51.4197 43.3698L51.4223 43.3878C51.322 42.8182 51.1161 42.2723 50.8152 41.7784L50.8281 41.7991L37.0925 17.6372L34.9948 13.9688L32.9101 17.6372L19.1823 41.7991C18.9176 42.2848 18.7393 42.8127 18.6553 43.3594L18.6527 43.3878C18.5411 44.0088 18.613 44.6489 18.8593 45.2298L18.8516 45.2091C18.8884 45.2998 18.9316 45.3879 18.9808 45.4726L18.9756 45.4623C19.3889 46.1727 20.2673 47.0174 22.2048 47.0174H47.7746C48.1802 47.0174 50.1642 46.9348 51.0813 45.3718L51.0787 45.3693ZM34.9923 21.3029L47.5447 43.3853H22.445L34.9923 21.3029ZM61.4688 41.7991L43.3442 9.86909C43.1582 9.53326 42.1119 7.83601 40.2907 7.83601C39.4718 7.83601 38.2963 8.18475 37.3405 9.86392L34.9974 13.9714L37.0822 17.6398L40.3113 11.9254L58.2422 43.3904H51.4223C51.5102 43.9181 51.4585 44.4596 51.2724 44.9611L51.2802 44.9404C51.2409 45.0531 51.1916 45.162 51.1329 45.2659L51.1381 45.2556L51.0813 45.3718C50.1642 46.9348 48.1802 47.0174 47.7927 47.0174H58.4592C58.8519 47.0174 60.8282 46.9348 61.7453 45.3718C62.1508 44.6614 62.4428 43.4679 61.4688 41.8017V41.7991ZM18.9937 45.4597C18.9508 45.3825 18.912 45.3032 18.8774 45.222L18.8723 45.2065C18.6186 44.6286 18.543 43.9882 18.6553 43.3672L18.6527 43.3878L4.00258 43.3853L25.7775 5.06926L32.9256 17.6346L34.9974 13.9663L28.7664 2.98967C28.5933 2.67451 27.5393 0.982422 25.7258 0.982422C24.9069 0.982422 23.7315 1.33634 22.7757 3.01551L0.719168 41.7965C0.533168 42.1323 -0.378749 43.8942 0.525418 45.4571C0.938751 46.1675 1.81708 47.0123 3.75458 47.0123H22.228C20.3034 47.0123 19.4122 46.1804 18.9988 45.4571L18.9937 45.4597Z" fill="white"/>
</svg>
