<svg width="60" height="59" viewBox="0 0 60 59" fill="none" xmlns="http://www.w3.org/2000/svg">
<g clip-path="url(#clip0_22_42)">
<path d="M29.7502 9.83325C25.7148 9.83325 22.2453 10.9224 19.522 13.2567C16.8183 15.5742 15.0495 18.9479 14.0684 23.153C13.8542 24.0707 14.3212 25.0114 15.1817 25.3956C16.0422 25.7799 17.0543 25.4997 17.5947 24.7277C18.8401 22.9486 20.0836 21.8795 21.2784 21.3309C22.4355 20.7996 23.6828 20.6919 25.1114 21.0746C26.5531 21.4608 27.6691 22.5918 29.4213 24.4973L29.4779 24.5589C30.7987 25.9955 32.4098 27.748 34.6135 29.1077C36.9002 30.5186 39.7458 31.4665 43.5171 31.4665C47.5523 31.4665 51.0219 30.3773 53.7453 28.0431C56.4487 25.7256 58.2175 22.3519 59.1989 18.1468C59.4128 17.2291 58.946 16.2884 58.0853 15.9042C57.2251 15.5199 56.2127 15.8 55.6722 16.5721C54.4269 18.3512 53.1836 19.4202 51.9887 19.9689C50.8315 20.5002 49.5842 20.6079 48.1556 20.2252C46.7141 19.839 45.5978 18.708 43.8459 16.8024L43.7892 16.7408C42.4684 15.3042 40.8573 13.5517 38.6536 12.1921C36.3669 10.7812 33.5214 9.83325 29.7502 9.83325Z" fill="white"/>
<path d="M15.9836 27.5332C11.9481 27.5332 8.47865 28.6224 5.75533 30.9567C3.0516 33.2741 1.28286 36.6478 0.30167 40.8531C0.087531 41.7707 0.554504 42.7112 1.415 43.0955C2.27549 43.4798 3.28762 43.1997 3.82805 42.4276C5.07345 40.6486 6.31693 39.5795 7.51172 39.0308C8.66883 38.4995 9.91605 38.3919 11.3447 38.7746C12.7864 39.1607 13.9025 40.2918 15.6546 42.1975L15.7112 42.2589C17.032 43.6953 18.6432 45.448 20.8469 46.8078C23.1335 48.2186 25.979 49.1666 29.7502 49.1666C33.7857 49.1666 37.2551 48.0774 39.9786 45.743C42.682 43.4255 44.4508 40.0519 45.4322 35.8467C45.6462 34.929 45.1793 33.9884 44.3187 33.6041C43.4585 33.2198 42.446 33.5 41.9056 34.272C40.6603 36.0512 39.4169 37.1202 38.222 37.6688C37.065 38.2001 35.8177 38.3078 34.3891 37.9251C32.9474 37.539 31.8313 36.4079 30.0792 34.5024L30.0225 34.4408C28.7018 33.0042 27.0906 31.2517 24.8869 29.892C22.6003 28.4812 19.7547 27.5332 15.9836 27.5332Z" fill="white"/>
</g>
<defs>
<clipPath id="clip0_22_42">
<rect width="59" height="59" fill="white" transform="translate(0.25)"/>
</clipPath>
</defs>
</svg>
