<svg width="51" height="50" viewBox="0 0 51 50" fill="none" xmlns="http://www.w3.org/2000/svg">
<g clip-path="url(#clip0_22_45)">
<path d="M45.6167 0H5.38333C2.6875 0 0.5 2.1875 0.5 4.88333V45.1167C0.5 47.8125 2.6875 50 5.38333 50H45.6167C48.3125 50 50.5 47.8125 50.5 45.1167V4.88333C50.5 2.1875 48.3125 0 45.6167 0ZM29.5042 27.7417H23.2333V45.6042H18.2646V27.7417H12.0229V23.7292H29.5042V27.7417ZM45.7042 42.4375C44.7312 44.1771 42.9437 45.1563 41.0417 45.5625C38.8333 46.0333 36.4854 46.0083 34.2708 45.5937C33.1854 45.3896 32.2458 45.0854 31.4521 44.6771V39.7875C32.3396 40.5312 33.3021 41.0896 34.3417 41.4604C35.3812 41.8333 36.4312 42.0187 37.4896 42.0187C38.4271 42.0187 39.4708 41.9021 40.2792 41.3854C40.8333 41.0312 41.2042 40.4729 41.2042 39.8042C41.2042 38.8938 40.5458 38.2062 39.8354 37.7271C38.7958 37.0271 37.6021 36.5708 36.45 36.0917C34.7375 35.3792 33.4625 34.5083 32.6208 33.4792C31.1583 31.6896 30.9187 28.8312 32.0479 26.8104C33.0125 25.0854 34.7896 24.0687 36.6646 23.6167C38.7083 23.125 40.9271 23.125 43 23.4479C43.8812 23.5854 44.6937 23.7958 45.4375 24.0812V28.65C45.0708 28.3958 44.6708 28.1708 44.2375 27.9792C43.3833 27.5979 42.4604 27.3396 41.5333 27.2146C40.6062 27.0896 39.6292 27.0687 38.7146 27.2833C37.9937 27.45 37.2354 27.7854 36.8187 28.4292C36.6458 28.7 36.5583 29.0021 36.5583 29.3375C36.5583 29.7042 36.6542 30.0333 36.8479 30.3229C37.3375 31.0583 38.2 31.5312 38.9729 31.9125C40.3312 32.5792 41.7563 33.0792 43.0604 33.8521C44.3271 34.6 45.4521 35.6417 46.0021 37.0292C46.2667 37.6958 46.4 38.4729 46.4 39.3583C46.3979 40.5812 46.1667 41.6083 45.7042 42.4375Z" fill="white"/>
</g>
<defs>
<clipPath id="clip0_22_45">
<rect width="50" height="50" fill="white" transform="translate(0.5)"/>
</clipPath>
</defs>
</svg>
